SouffletVert-Hybrid106R-1.1.ufo
<glyph name="parenleft" format="2">
	<advance width="293"/>
	<unicode hex="0028"/>
	<outline>
		<contour>
			<point x="237" y="-63" type="curve"/>
			<point x="237" y="-63" type="line"/>
			<point x="253" y="-46" type="line"/>
			<point x="146" y="54"/>
			<point x="84" y="155"/>
			<point x="84" y="289" type="curve"/>
			<point x="84" y="420"/>
			<point x="152" y="525"/>
			<point x="253" y="618" type="curve"/>
			<point x="235" y="634" type="line"/>
			<point x="111" y="546"/>
			<point x="40" y="422"/>
			<point x="40" y="283" type="curve"/>
			<point x="40" y="144"/>
			<point x="110" y="27"/>
		</contour>
	</outline>
</glyph>
<glyph name="parenright" format="2">
	<advance width="293"/>
	<unicode hex="0029"/>
	<outline>
		<contour>
			<point x="40" y="-46" type="curve"/>
			<point x="56" y="-63" type="line"/>
			<point x="183" y="27"/>
			<point x="253" y="144"/>
			<point x="253" y="283" type="curve"/>
			<point x="253" y="422"/>
			<point x="182" y="546"/>
			<point x="58" y="634" type="curve"/>
			<point x="40" y="618" type="line"/>
			<point x="141" y="525"/>
			<point x="209" y="420"/>
			<point x="209" y="289" type="curve"/>
			<point x="209" y="155"/>
			<point x="147" y="54"/>
		</contour>
	</outline>
</glyph>
<glyph name="hyphen" format="2">
	<advance width="310"/>
	<unicode hex="002D"/>
	<outline>
		<contour>
			<point x="24" y="265" type="line"/>
			<point x="29" y="259" type="line"/>
			<point x="271" y="329" type="line"/>
			<point x="288" y="377" type="line"/>
			<point x="284" y="382" type="line"/>
			<point x="36" y="297" type="line"/>
		</contour>
		<contour>
			<point x="20" y="125" type="line"/>
			<point x="25" y="119" type="line"/>
			<point x="271" y="170" type="line"/>
			<point x="290" y="217" type="line"/>
			<point x="286" y="222" type="line"/>
			<point x="36" y="156" type="line"/>
		</contour>
	</outline>
</glyph>
<glyph name="period" format="2">
	<advance width="186"/>
	<unicode hex="002E"/>
	<outline>
		<contour>
			<point x="85" y="-19" type="curve"/>
			<point x="102" y="-19" type="line"/>
			<point x="111" y="23"/>
			<point x="129" y="42"/>
			<point x="171" y="52" type="curve"/>
			<point x="171" y="69" type="line"/>
			<point x="129" y="80"/>
			<point x="112" y="98"/>
			<point x="102" y="140" type="curve"/>
			<point x="85" y="140" type="line"/>
			<point x="75" y="98"/>
			<point x="57" y="77"/>
			<point x="15" y="67" type="curve"/>
			<point x="15" y="52" type="line"/>
			<point x="58" y="42"/>
			<point x="75" y="23"/>
		</contour>
	</outline>
</glyph>
<glyph name="slash" format="2">
	<advance width="214"/>
	<unicode hex="002F"/>
	<outline>
		<contour>
			<point x="15" y="12" type="curve"/>
			<point x="20" y="0" type="line"/>
			<point x="88" y="10" type="line"/>
			<point x="117" y="167"/>
			<point x="158" y="314"/>
			<point x="204" y="471" type="curve"/>
			<point x="177" y="472" type="line"/>
			<point x="122" y="304"/>
			<point x="67" y="154"/>
		</contour>
	</outline>
</glyph>
<glyph name="semicolon" format="2">
	<advance width="191"/>
	<unicode hex="003B"/>
	<outline>
		<contour>
			<point x="126" y="184" type="line"/>
			<point x="196" y="533" type="line"/>
			<point x="190" y="598" type="line"/>
			<point x="179" y="598" type="line"/>
			<point x="140" y="448"/>
			<point x="104" y="321"/>
			<point x="65" y="211" type="curve"/>
			<point x="66" y="204" type="line"/>
		</contour>
		<contour>
			<point x="75" y="-19" type="curve"/>
			<point x="92" y="-19" type="line"/>
			<point x="101" y="23"/>
			<point x="119" y="42"/>
			<point x="161" y="52" type="curve"/>
			<point x="161" y="69" type="line"/>
			<point x="119" y="80"/>
			<point x="102" y="98"/>
			<point x="92" y="140" type="curve"/>
			<point x="75" y="140" type="line"/>
			<point x="65" y="98"/>
			<point x="47" y="77"/>
			<point x="5" y="67" type="curve"/>
			<point x="5" y="52" type="line"/>
			<point x="48" y="42"/>
			<point x="65" y="23"/>
		</contour>
	</outline>
</glyph>
<glyph name="question" format="2">
	<advance width="331"/>
	<unicode hex="003F"/>
	<outline>
		<contour>
			<point x="109" y="160" type="curve"/>
			<point x="109" y="160" type="line"/>
			<point x="131" y="183" type="line"/>
			<point x="98" y="214"/>
			<point x="75" y="243"/>
			<point x="63" y="277" type="curve"/>
			<point x="91" y="270"/>
			<point x="148" y="243"/>
			<point x="214" y="243" type="curve"/>
			<point x="265" y="264"/>
			<point x="316" y="344"/>
			<point x="316" y="378" type="curve"/>
			<point x="251" y="459"/>
			<point x="143" y="551"/>
			<point x="129" y="576" type="curve"/>
			<point x="138" y="582"/>
			<point x="151" y="588"/>
			<point x="168" y="591" type="curve"/>
			<point x="154" y="612" type="line"/>
			<point x="129" y="602"/>
			<point x="106" y="591"/>
			<point x="87" y="575" type="curve"/>
			<point x="106" y="542"/>
			<point x="216" y="443"/>
			<point x="265" y="375" type="curve"/>
			<point x="257" y="352"/>
			<point x="242" y="331"/>
			<point x="216" y="331" type="curve"/>
			<point x="186" y="331"/>
			<point x="142" y="351"/>
			<point x="96" y="364" type="curve"/>
			<point x="77" y="351"/>
			<point x="37" y="303"/>
			<point x="17" y="270" type="curve"/>
			<point x="40" y="246"/>
			<point x="65" y="213"/>
		</contour>
		<contour>
			<point x="85" y="-19" type="curve"/>
			<point x="85" y="-19" type="line"/>
			<point x="102" y="-19" type="line"/>
			<point x="111" y="23"/>
			<point x="129" y="42"/>
			<point x="171" y="52" type="curve"/>
			<point x="171" y="69" type="line"/>
			<point x="129" y="80"/>
			<point x="112" y="98"/>
			<point x="102" y="140" type="curve"/>
			<point x="85" y="140" type="line"/>
			<point x="75" y="98"/>
			<point x="57" y="77"/>
			<point x="15" y="67" type="curve"/>
			<point x="15" y="52" type="line"/>
			<point x="58" y="42"/>
			<point x="75" y="23"/>
		</contour>
	</outline>
</glyph>
<glyph name="A" format="2">
	<advance width="735"/>
	<unicode hex="0041"/>
	<anchor x="665" y="10" name="ogonek"/>
	<anchor x="363" y="0" name="bottom"/>
	<anchor x="363" y="700" name="top"/>
	<outline>
		<contour>
			<point x="553" y="-24" type="curve"/>
			<point x="576" y="-39" type="line"/>
			<point x="624" y="23"/>
			<point x="672" y="65"/>
			<point x="720" y="89" type="curve"/>
			<point x="612" y="266"/>
			<point x="512" y="442"/>
			<point x="419" y="618" type="curve"/>
			<point x="549" y="619"/>
			<point x="626" y="623"/>
			<point x="704" y="572" type="curve"/>
			<point x="719" y="583" type="line"/>
			<point x="695" y="624"/>
			<point x="690" y="668"/>
			<point x="708" y="715" type="curve"/>
			<point x="689" y="723" type="line"/>
			<point x="645" y="682"/>
			<point x="570" y="675"/>
			<point x="390" y="674" type="curve"/>
			<point x="372" y="709" type="line"/>
			<point x="359" y="708" type="line"/>
			<point x="341" y="674" type="line"/>
			<point x="204" y="673"/>
			<point x="135" y="665"/>
			<point x="65" y="725" type="curve"/>
			<point x="43" y="719" type="line"/>
			<point x="65" y="654"/>
			<point x="60" y="638"/>
			<point x="33" y="583" type="curve"/>
			<point x="53" y="568" type="line"/>
			<point x="121" y="616"/>
			<point x="151" y="617"/>
			<point x="310" y="618" type="curve"/>
			<point x="216" y="441"/>
			<point x="114" y="247"/>
			<point x="5" y="78" type="curve"/>
			<point x="42" y="64"/>
			<point x="92" y="29"/>
			<point x="153" y="-25" type="curve"/>
			<point x="176" y="-10" type="line"/>
			<point x="119" y="178"/>
			<point x="191" y="250"/>
			<point x="239" y="349" type="curve"/>
			<point x="281" y="280"/>
			<point x="318" y="212"/>
			<point x="351" y="143" type="curve"/>
			<point x="367" y="142" type="line"/>
			<point x="408" y="226"/>
			<point x="447" y="301"/>
			<point x="488" y="366" type="curve"/>
			<point x="499" y="342" type="line" smooth="yes"/>
			<point x="550" y="233"/>
			<point x="614" y="151"/>
		</contour>
		<contour>
			<point x="362" y="231" type="curve"/>
			<point x="362" y="231" type="line"/>
			<point x="328" y="287"/>
			<point x="295" y="343"/>
			<point x="262" y="399" type="curve"/>
			<point x="363" y="632" type="line"/>
			<point x="465" y="415" type="line"/>
			<point x="436" y="356"/>
			<point x="401" y="291"/>
		</contour>
	</outline>
</glyph>
<glyph name="B" format="2">
	<advance width="628"/>
	<unicode hex="0042"/>
	<anchor x="307" y="700" name="top"/>
	<anchor x="307" y="0" name="bottom"/>
	<outline>
		<contour>
			<point x="389" y="-14" type="curve" smooth="yes"/>
			<point x="515" y="-14"/>
			<point x="593" y="69"/>
			<point x="593" y="182" type="curve" smooth="yes"/>
			<point x="593" y="296"/>
			<point x="486" y="352"/>
			<point x="426" y="363" type="curve"/>
			<point x="501" y="375"/>
			<point x="582" y="444"/>
			<point x="582" y="535" type="curve" smooth="yes"/>
			<point x="582" y="636"/>
			<point x="499" y="711"/>
			<point x="367" y="711" type="curve" smooth="yes"/>
			<point x="318" y="711"/>
			<point x="249" y="695"/>
			<point x="181" y="694" type="curve" smooth="yes"/>
			<point x="128" y="693"/>
			<point x="92" y="697"/>
			<point x="61" y="714" type="curve"/>
			<point x="40" y="691" type="line"/>
			<point x="86" y="648"/>
			<point x="100" y="642"/>
			<point x="100" y="553" type="curve" smooth="yes"/>
			<point x="99" y="107" type="line" smooth="yes"/>
			<point x="99" y="57"/>
			<point x="79" y="45"/>
			<point x="45" y="24" type="curve"/>
			<point x="66" y="-8" type="line"/>
			<point x="82" y="2"/>
			<point x="113" y="8"/>
			<point x="159" y="8" type="curve" smooth="yes"/>
			<point x="228" y="8"/>
			<point x="332" y="-14"/>
		</contour>
		<contour>
			<point x="340" y="30" type="curve" smooth="yes"/>
			<point x="255" y="30"/>
			<point x="194" y="71"/>
			<point x="194" y="147" type="curve" smooth="yes"/>
			<point x="194" y="341" type="line"/>
			<point x="226" y="344"/>
			<point x="258" y="346"/>
			<point x="290" y="346" type="curve" smooth="yes"/>
			<point x="468" y="346"/>
			<point x="501" y="226"/>
			<point x="501" y="175" type="curve" smooth="yes"/>
			<point x="501" y="88"/>
			<point x="446" y="30"/>
		</contour>
		<contour>
			<point x="291" y="385" type="curve" smooth="yes"/>
			<point x="259" y="385"/>
			<point x="226" y="385"/>
			<point x="194" y="387" type="curve"/>
			<point x="194" y="544" type="line" smooth="yes"/>
			<point x="194" y="638"/>
			<point x="240" y="672"/>
			<point x="327" y="672" type="curve" smooth="yes"/>
			<point x="432" y="672"/>
			<point x="492" y="609"/>
			<point x="492" y="527" type="curve" smooth="yes"/>
			<point x="492" y="431"/>
			<point x="407" y="385"/>
		</contour>
	</outline>
</glyph>
<glyph name="C" format="2">
	<advance width="636"/>
	<unicode hex="0043"/>
	<anchor x="283" y="700" name="top"/>
	<anchor x="283" y="0" name="bottom"/>
	<outline>
		<contour>
			<point x="330" y="-9" type="curve"/>
			<point x="330" y="-9" type="line"/>
			<point x="415" y="-9"/>
			<point x="479" y="18"/>
			<point x="525" y="50" type="curve"/>
			<point x="571" y="-7" type="line"/>
			<point x="597" y="3" type="line"/>
			<point x="575" y="75"/>
			<point x="582" y="166"/>
			<point x="595" y="223" type="curve"/>
			<point x="569" y="229" type="line"/>
			<point x="532" y="111"/>
			<point x="487" y="37"/>
			<point x="350" y="37" type="curve"/>
			<point x="173" y="37"/>
			<point x="115" y="191"/>
			<point x="115" y="352" type="curve"/>
			<point x="115" y="538"/>
			<point x="217" y="663"/>
			<point x="360" y="663" type="curve"/>
			<point x="445" y="663"/>
			<point x="520" y="623"/>
			<point x="558" y="497" type="curve"/>
			<point x="585" y="500" type="line"/>
			<point x="581" y="571"/>
			<point x="582" y="620"/>
			<point x="606" y="700" type="curve"/>
			<point x="583" y="709" type="line"/>
			<point x="535" y="649" type="line"/>
			<point x="499" y="685"/>
			<point x="415" y="712"/>
			<point x="350" y="712" type="curve"/>
			<point x="186" y="712"/>
			<point x="15" y="580"/>
			<point x="15" y="352" type="curve"/>
			<point x="15" y="129"/>
			<point x="111" y="-9"/>
		</contour>
	</outline>
</glyph>
<glyph name="D" format="2">
	<advance width="783"/>
	<unicode hex="0044"/>
	<anchor x="384" y="350" name="center"/>
	<anchor x="384" y="0" name="bottom"/>
	<anchor x="384" y="700" name="top"/>
	<outline>
		<contour>
			<point x="25" y="18" type="curve"/>
			<point x="45" y="-15" type="line"/>
			<point x="56" y="-12"/>
			<point x="104" y="21"/>
			<point x="143" y="21" type="curve"/>
			<point x="221" y="21"/>
			<point x="290" y="-10"/>
			<point x="407" y="-10" type="curve"/>
			<point x="592" y="-10"/>
			<point x="758" y="125"/>
			<point x="758" y="344" type="curve"/>
			<point x="758" y="568"/>
			<point x="614" y="711"/>
			<point x="398" y="711" type="curve"/>
			<point x="312" y="711"/>
			<point x="253" y="682"/>
			<point x="181" y="682" type="curve"/>
			<point x="147" y="682"/>
			<point x="86" y="700"/>
			<point x="51" y="704" type="curve"/>
			<point x="40" y="678" type="line"/>
			<point x="90" y="656"/>
			<point x="111" y="639"/>
			<point x="110" y="557" type="curve"/>
			<point x="104" y="145" type="line" smooth="yes"/>
			<point x="103" y="65"/>
			<point x="74" y="55"/>
		</contour>
		<contour>
			<point x="403" y="31" type="curve"/>
			<point x="403" y="31" type="line"/>
			<point x="307" y="31"/>
			<point x="269" y="51"/>
			<point x="211" y="103" type="curve"/>
			<point x="207" y="240"/>
			<point x="207" y="377"/>
			<point x="211" y="514" type="curve"/>
			<point x="214" y="613"/>
			<point x="281" y="664"/>
			<point x="400" y="664" type="curve"/>
			<point x="560" y="664"/>
			<point x="649" y="541"/>
			<point x="649" y="344" type="curve"/>
			<point x="649" y="149"/>
			<point x="535" y="31"/>
		</contour>
	</outline>
</glyph>
<glyph name="E" format="2">
	<advance width="557"/>
	<unicode hex="0045"/>
	<anchor x="464" y="10" name="ogonek"/>
	<anchor x="254" y="700" name="top"/>
	<anchor x="11" y="700" name="topleft"/>
	<anchor x="254" y="0" name="bottom"/>
	<outline>
		<contour>
			<point x="498" y="-16" type="curve"/>
			<point x="498" y="-16" type="line"/>
			<point x="515" y="-7" type="line"/>
			<point x="511" y="43"/>
			<point x="506" y="84"/>
			<point x="517" y="133" type="curve"/>
			<point x="493" y="141" type="line"/>
			<point x="462" y="69"/>
			<point x="389" y="27"/>
			<point x="301" y="27" type="curve"/>
			<point x="213" y="27"/>
			<point x="142" y="74"/>
			<point x="139" y="171" type="curve"/>
			<point x="136" y="265"/>
			<point x="204" y="339"/>
			<point x="309" y="339" type="curve"/>
			<point x="414" y="339"/>
			<point x="446" y="299"/>
			<point x="480" y="249" type="curve"/>
			<point x="502" y="257" type="line"/>
			<point x="492" y="309"/>
			<point x="474" y="357"/>
			<point x="504" y="438" type="curve"/>
			<point x="483" y="446" type="line"/>
			<point x="448" y="408"/>
			<point x="432" y="369"/>
			<point x="309" y="369" type="curve"/>
			<point x="207" y="369"/>
			<point x="137" y="432"/>
			<point x="140" y="521" type="curve"/>
			<point x="143" y="613"/>
			<point x="219" y="675"/>
			<point x="300" y="675" type="curve"/>
			<point x="404" y="675"/>
			<point x="455" y="633"/>
			<point x="484" y="526" type="curve"/>
			<point x="511" y="531" type="line"/>
			<point x="503" y="599"/>
			<point x="508" y="649"/>
			<point x="515" y="699" type="curve"/>
			<point x="500" y="707" type="line"/>
			<point x="456" y="687"/>
			<point x="409" y="709"/>
			<point x="298" y="709" type="curve"/>
			<point x="174" y="709"/>
			<point x="40" y="648"/>
			<point x="40" y="519" type="curve"/>
			<point x="40" y="414"/>
			<point x="98" y="370"/>
			<point x="171" y="348" type="curve"/>
			<point x="98" y="327"/>
			<point x="40" y="278"/>
			<point x="40" y="173" type="curve"/>
			<point x="40" y="44"/>
			<point x="160" y="-8"/>
			<point x="279" y="-8" type="curve"/>
			<point x="380" y="-8"/>
			<point x="459" y="13"/>
		</contour>
	</outline>
</glyph>
<glyph name="F" format="2">
	<advance width="561"/>
	<unicode hex="0046"/>
	<anchor x="269" y="700" name="top"/>
	<anchor x="269" y="0" name="bottom"/>
	<outline>
		<contour>
			<point x="44" y="16" type="curve"/>
			<point x="44" y="-10" type="line"/>
			<point x="148" y="2"/>
			<point x="178" y="1"/>
			<point x="313" y="-10" type="curve"/>
			<point x="313" y="21" type="line"/>
			<point x="219" y="44"/>
			<point x="193" y="45"/>
			<point x="192" y="105" type="curve"/>
			<point x="190" y="334" type="line"/>
			<point x="416" y="333" type="line" smooth="yes"/>
			<point x="486" y="333"/>
			<point x="479" y="283"/>
			<point x="499" y="244" type="curve"/>
			<point x="528" y="248" type="line"/>
			<point x="516" y="334"/>
			<point x="514" y="393"/>
			<point x="528" y="479" type="curve"/>
			<point x="501" y="482" type="line"/>
			<point x="483" y="433"/>
			<point x="476" y="382"/>
			<point x="417" y="382" type="curve"/>
			<point x="189" y="381" type="line"/>
			<point x="189" y="606" type="line" smooth="yes"/>
			<point x="189" y="651"/>
			<point x="208" y="658"/>
			<point x="310" y="658" type="curve"/>
			<point x="462" y="658"/>
			<point x="503" y="597"/>
			<point x="516" y="544" type="curve"/>
			<point x="546" y="548" type="line"/>
			<point x="544" y="601"/>
			<point x="543" y="653"/>
			<point x="545" y="699" type="curve"/>
			<point x="44" y="699" type="line"/>
			<point x="40" y="673" type="line"/>
			<point x="77" y="641"/>
			<point x="96" y="625"/>
			<point x="96" y="542" type="curve"/>
			<point x="96" y="118" type="line" smooth="yes"/>
			<point x="96" y="53"/>
			<point x="96" y="53"/>
		</contour>
	</outline>
</glyph>
<glyph name="G" format="2">
	<advance width="700"/>
	<unicode hex="0047"/>
	<anchor x="344" y="700" name="top"/>
	<anchor x="344" y="0" name="bottom"/>
	<outline>
		<contour>
			<point x="355" y="-7" type="curve" smooth="yes"/>
			<point x="570" y="-7"/>
			<point x="669" y="159"/>
			<point x="669" y="299" type="curve" smooth="yes"/>
			<point x="669" y="456"/>
			<point x="562" y="578"/>
			<point x="423" y="578" type="curve" smooth="yes"/>
			<point x="266" y="578"/>
			<point x="193" y="402"/>
			<point x="319" y="288" type="curve"/>
			<point x="340" y="303" type="line"/>
			<point x="265" y="404"/>
			<point x="301" y="521"/>
			<point x="415" y="521" type="curve" smooth="yes"/>
			<point x="515" y="521"/>
			<point x="574" y="418"/>
			<point x="574" y="289" type="curve" smooth="yes"/>
			<point x="574" y="165"/>
			<point x="491" y="33"/>
			<point x="355" y="33" type="curve" smooth="yes"/>
			<point x="207" y="33"/>
			<point x="119" y="160"/>
			<point x="119" y="348" type="curve" smooth="yes"/>
			<point x="119" y="556"/>
			<point x="256" y="662"/>
			<point x="388" y="662" type="curve" smooth="yes"/>
			<point x="517" y="662"/>
			<point x="608" y="607"/>
			<point x="656" y="527" type="curve"/>
			<point x="685" y="537" type="line"/>
			<point x="670" y="569"/>
			<point x="641" y="650"/>
			<point x="657" y="705" type="curve"/>
			<point x="639" y="716" type="line"/>
			<point x="624" y="700"/>
			<point x="601" y="683"/>
			<point x="584" y="671" type="curve"/>
			<point x="539" y="681"/>
			<point x="484" y="706"/>
			<point x="385" y="706" type="curve" smooth="yes"/>
			<point x="241" y="706"/>
			<point x="15" y="587"/>
			<point x="15" y="339" type="curve" smooth="yes"/>
			<point x="15" y="141"/>
			<point x="164" y="-7"/>
		</contour>
	</outline>
</glyph>
<glyph name="H" format="2">
	<advance width="818"/>
	<unicode hex="0048"/>
	<anchor x="414" y="0" name="bottom"/>
	<anchor x="414" y="700" name="top"/>
	<anchor x="25" y="700" name="topleft"/>
	<anchor x="414" y="350" name="center"/>
	<outline>
		<contour>
			<point x="47" y="-13" type="line"/>
			<point x="118" y="3"/>
			<point x="200" y="0"/>
			<point x="252" y="-9" type="curve"/>
			<point x="254" y="14" type="line"/>
			<point x="210" y="43"/>
			<point x="196" y="66"/>
			<point x="197" y="157" type="curve" smooth="yes"/>
			<point x="198" y="310" type="line"/>
			<point x="379" y="311" type="line"/>
			<point x="385" y="330" type="line"/>
			<point x="373" y="341"/>
			<point x="348" y="367"/>
			<point x="348" y="412" type="curve" smooth="yes"/>
			<point x="348" y="453"/>
			<point x="381" y="482"/>
			<point x="413" y="482" type="curve" smooth="yes"/>
			<point x="444" y="482"/>
			<point x="480" y="453"/>
			<point x="480" y="412" type="curve" smooth="yes"/>
			<point x="480" y="367"/>
			<point x="452" y="340"/>
			<point x="440" y="329" type="curve"/>
			<point x="446" y="311" type="line"/>
			<point x="620" y="309" type="line"/>
			<point x="621" y="157" type="line" smooth="yes"/>
			<point x="622" y="66"/>
			<point x="608" y="53"/>
			<point x="564" y="14" type="curve"/>
			<point x="569" y="-9" type="line"/>
			<point x="621" y="0"/>
			<point x="701" y="3"/>
			<point x="772" y="-13" type="curve"/>
			<point x="776" y="11" type="line"/>
			<point x="740" y="33"/>
			<point x="719" y="63"/>
			<point x="719" y="154" type="curve" smooth="yes"/>
			<point x="719" y="309" type="line"/>
			<point x="770" y="341" type="line"/>
			<point x="770" y="349" type="line"/>
			<point x="719" y="372" type="line"/>
			<point x="719" y="514" type="line" smooth="yes"/>
			<point x="719" y="603"/>
			<point x="720" y="632"/>
			<point x="778" y="690" type="curve"/>
			<point x="772" y="712" type="line"/>
			<point x="698" y="695"/>
			<point x="616" y="700"/>
			<point x="568" y="712" type="curve"/>
			<point x="562" y="691" type="line"/>
			<point x="618" y="638"/>
			<point x="618" y="621"/>
			<point x="619" y="514" type="curve" smooth="yes"/>
			<point x="620" y="372" type="line"/>
			<point x="511" y="371" type="line"/>
			<point x="537" y="453"/>
			<point x="494" y="517"/>
			<point x="412" y="517" type="curve" smooth="yes"/>
			<point x="411" y="517" type="line" smooth="yes"/>
			<point x="336" y="517"/>
			<point x="287" y="453"/>
			<point x="315" y="371" type="curve"/>
			<point x="198" y="372" type="line"/>
			<point x="199" y="514" type="line" smooth="yes"/>
			<point x="199" y="603"/>
			<point x="200" y="638"/>
			<point x="256" y="691" type="curve"/>
			<point x="251" y="712" type="line"/>
			<point x="203" y="700"/>
			<point x="121" y="695"/>
			<point x="47" y="712" type="curve"/>
			<point x="40" y="690" type="line"/>
			<point x="98" y="632"/>
			<point x="99" y="603"/>
			<point x="99" y="514" type="curve" smooth="yes"/>
			<point x="99" y="373" type="line"/>
			<point x="56" y="349" type="line"/>
			<point x="56" y="341" type="line"/>
			<point x="99" y="309" type="line"/>
			<point x="99" y="154" type="line" smooth="yes"/>
			<point x="99" y="63"/>
			<point x="78" y="33"/>
			<point x="42" y="11" type="curve"/>
		</contour>
	</outline>
</glyph>
<glyph name="I" format="2">
	<advance width="512"/>
	<unicode hex="0049"/>
	<anchor x="461" y="10" name="ogonek"/>
	<anchor x="255" y="700" name="top"/>
	<anchor x="17" y="700" name="topleft"/>
	<anchor x="255" y="0" name="bottom"/>
	<outline>
		<contour>
			<point x="40" y="18" type="curve"/>
			<point x="45" y="-10" type="line"/>
			<point x="137" y="4"/>
			<point x="356" y="4"/>
			<point x="479" y="-10" type="curve"/>
			<point x="482" y="18" type="line"/>
			<point x="369" y="42"/>
			<point x="312" y="40"/>
			<point x="312" y="140" type="curve"/>
			<point x="311" y="343" type="line"/>
			<point x="312" y="343" type="line"/>
			<point x="380" y="373" type="line"/>
			<point x="380" y="389" type="line"/>
			<point x="311" y="389" type="line"/>
			<point x="310" y="545" type="line" smooth="yes"/>
			<point x="309" y="647"/>
			<point x="358" y="668"/>
			<point x="472" y="683" type="curve"/>
			<point x="468" y="710" type="line"/>
			<point x="331" y="700"/>
			<point x="191" y="697"/>
			<point x="45" y="710" type="curve"/>
			<point x="40" y="683" type="line"/>
			<point x="145" y="668"/>
			<point x="209" y="648"/>
			<point x="210" y="545" type="curve"/>
			<point x="211" y="389" type="line"/>
			<point x="210" y="389" type="line"/>
			<point x="146" y="360" type="line"/>
			<point x="146" y="343" type="line"/>
			<point x="211" y="343" type="line"/>
			<point x="212" y="140" type="line" smooth="yes"/>
			<point x="212" y="39"/>
			<point x="161" y="44"/>
		</contour>
	</outline>
</glyph>
<glyph name="J" format="2">
	<advance width="441"/>
	<unicode hex="004A"/>
	<outline>
		<contour>
			<point x="221" y="-153" type="curve"/>
			<point x="221" y="-153" type="line"/>
			<point x="341" y="-153"/>
			<point x="399" y="-59"/>
			<point x="399" y="60" type="curve"/>
			<point x="399" y="214"/>
			<point x="358" y="298"/>
			<point x="358" y="435" type="curve"/>
			<point x="358" y="525"/>
			<point x="379" y="599"/>
			<point x="426" y="708" type="curve"/>
			<point x="408" y="722" type="line"/>
			<point x="407" y="722" type="line"/>
			<point x="297" y="690"/>
			<point x="172" y="703"/>
			<point x="22" y="713" type="curve"/>
			<point x="19" y="678" type="line"/>
			<point x="174" y="670"/>
			<point x="314" y="644"/>
			<point x="332" y="619" type="curve"/>
			<point x="312" y="499"/>
			<point x="240" y="292"/>
			<point x="240" y="199" type="curve"/>
			<point x="240" y="159"/>
			<point x="335" y="140"/>
			<point x="335" y="48" type="curve"/>
			<point x="335" y="-54"/>
			<point x="284" y="-111"/>
			<point x="212" y="-111" type="curve"/>
			<point x="122" y="-111"/>
			<point x="64" y="-46"/>
			<point x="30" y="1" type="curve"/>
			<point x="5" y="-15" type="line"/>
			<point x="42" y="-80"/>
			<point x="105" y="-153"/>
		</contour>
	</outline>
</glyph>
<glyph name="K" format="2">
	<advance width="702"/>
	<unicode hex="004B"/>
	<outline>
		<contour>
			<point x="34" y="14" type="curve"/>
			<point x="40" y="-10" type="line"/>
			<point x="126" y="4"/>
			<point x="242" y="3"/>
			<point x="324" y="-10" type="curve"/>
			<point x="330" y="15" type="line"/>
			<point x="242" y="48"/>
			<point x="227" y="81"/>
			<point x="227" y="163" type="curve"/>
			<point x="227" y="292" type="line" smooth="yes"/>
			<point x="227" y="344"/>
			<point x="261" y="357"/>
			<point x="285" y="357" type="curve"/>
			<point x="316" y="357" type="line" smooth="yes"/>
			<point x="452" y="357"/>
			<point x="525" y="298"/>
			<point x="525" y="214" type="curve"/>
			<point x="525" y="157"/>
			<point x="506" y="102"/>
			<point x="506" y="59" type="curve"/>
			<point x="506" y="-29"/>
			<point x="643" y="-36"/>
			<point x="697" y="68" type="curve"/>
			<point x="685" y="85" type="line"/>
			<point x="619" y="38"/>
			<point x="602" y="67"/>
			<point x="602" y="84" type="curve"/>
			<point x="602" y="128"/>
			<point x="645" y="155"/>
			<point x="645" y="185" type="curve"/>
			<point x="645" y="267"/>
			<point x="521" y="356"/>
			<point x="407" y="383" type="curve"/>
			<point x="456" y="410"/>
			<point x="546" y="480"/>
			<point x="576" y="573" type="curve"/>
			<point x="600" y="648"/>
			<point x="655" y="661"/>
			<point x="717" y="675" type="curve"/>
			<point x="717" y="700" type="line"/>
			<point x="537" y="700" type="line"/>
			<point x="432" y="601"/>
			<point x="485" y="396"/>
			<point x="305" y="396" type="curve"/>
			<point x="228" y="396" type="line"/>
			<point x="225" y="566" type="line" smooth="yes"/>
			<point x="224" y="629"/>
			<point x="250" y="646"/>
			<point x="329" y="676" type="curve"/>
			<point x="322" y="705" type="line"/>
			<point x="210" y="685"/>
			<point x="147" y="687"/>
			<point x="33" y="707" type="curve"/>
			<point x="20" y="679" type="line"/>
			<point x="103" y="644"/>
			<point x="127" y="623"/>
			<point x="127" y="569" type="curve"/>
			<point x="128" y="421" type="line"/>
			<point x="85" y="389" type="line"/>
			<point x="85" y="378" type="line"/>
			<point x="127" y="343" type="line"/>
			<point x="127" y="148" type="line" smooth="yes"/>
			<point x="127" y="70"/>
			<point x="127" y="52"/>
		</contour>
	</outline>
</glyph>
<glyph name="L" format="2">
	<advance width="564"/>
	<unicode hex="004C"/>
	<anchor x="292" y="350" name="center"/>
	<anchor x="292" y="700" name="top"/>
	<anchor x="557" y="700" name="topright"/>
	<anchor x="292" y="0" name="bottom"/>
	<outline>
		<contour>
			<point x="40" y="13" type="curve"/>
			<point x="49" y="-14" type="line"/>
			<point x="217" y="2"/>
			<point x="386" y="5"/>
			<point x="549" y="-11" type="curve"/>
			<point x="559" y="4" type="line"/>
			<point x="530" y="76"/>
			<point x="528" y="152"/>
			<point x="539" y="224" type="curve"/>
			<point x="509" y="228" type="line"/>
			<point x="492" y="144"/>
			<point x="467" y="84"/>
			<point x="386" y="80" type="curve"/>
			<point x="195" y="70" type="line"/>
			<point x="196" y="580" type="line" smooth="yes"/>
			<point x="196" y="643"/>
			<point x="226" y="663"/>
			<point x="284" y="682" type="curve"/>
			<point x="278" y="708" type="line"/>
			<point x="203" y="698"/>
			<point x="131" y="698"/>
			<point x="51" y="708" type="curve"/>
			<point x="45" y="687" type="line"/>
			<point x="108" y="652"/>
			<point x="95" y="616"/>
			<point x="95" y="553" type="curve"/>
			<point x="95" y="120" type="line" smooth="yes"/>
			<point x="95" y="60"/>
			<point x="89" y="48"/>
		</contour>
	</outline>
</glyph>
<glyph name="M" format="2">
	<advance width="829"/>
	<unicode hex="004D"/>
	<anchor x="384" y="700" name="top"/>
	<anchor x="384" y="0" name="bottom"/>
	<outline>
		<contour>
			<point x="5" y="83" type="curve"/>
			<point x="163" y="-15" type="line"/>
			<point x="180" y="0" type="line"/>
			<point x="135" y="148"/>
			<point x="182" y="267"/>
			<point x="214" y="378" type="curve"/>
			<point x="259" y="535" type="line"/>
			<point x="393" y="2" type="line"/>
			<point x="417" y="2" type="line"/>
			<point x="578" y="535" type="line"/>
			<point x="619" y="378" type="line" smooth="yes"/>
			<point x="649" y="263"/>
			<point x="694" y="148"/>
			<point x="649" y="0" type="curve"/>
			<point x="666" y="-15" type="line"/>
			<point x="824" y="83" type="line"/>
			<point x="727" y="273"/>
			<point x="691" y="472"/>
			<point x="610" y="709" type="curve"/>
			<point x="586" y="710" type="line"/>
			<point x="410" y="129" type="line"/>
			<point x="264" y="709" type="line"/>
			<point x="239" y="709" type="line"/>
			<point x="168" y="472"/>
			<point x="102" y="273"/>
		</contour>
	</outline>
</glyph>
<glyph name="N" format="2">
	<advance width="883"/>
	<unicode hex="004E"/>
	<anchor x="442" y="700" name="top"/>
	<anchor x="442" y="0" name="bottom"/>
	<outline>
		<contour>
			<point x="44" y="-10" type="line"/>
			<point x="117" y="4"/>
			<point x="231" y="4"/>
			<point x="334" y="-10" type="curve"/>
			<point x="337" y="18" type="line"/>
			<point x="244" y="42"/>
			<point x="232" y="40"/>
			<point x="232" y="140" type="curve" smooth="yes"/>
			<point x="231" y="339" type="line"/>
			<point x="296" y="366" type="line"/>
			<point x="296" y="380" type="line"/>
			<point x="231" y="380" type="line"/>
			<point x="230" y="573" type="line"/>
			<point x="658" y="77" type="line"/>
			<point x="655" y="39"/>
			<point x="641" y="37"/>
			<point x="576" y="18" type="curve"/>
			<point x="581" y="-10" type="line"/>
			<point x="643" y="4"/>
			<point x="757" y="4"/>
			<point x="840" y="-10" type="curve"/>
			<point x="843" y="18" type="line"/>
			<point x="770" y="42"/>
			<point x="758" y="40"/>
			<point x="758" y="140" type="curve" smooth="yes"/>
			<point x="757" y="339" type="line"/>
			<point x="822" y="366" type="line"/>
			<point x="822" y="380" type="line"/>
			<point x="757" y="380" type="line"/>
			<point x="756" y="545" type="line" smooth="yes"/>
			<point x="755" y="647"/>
			<point x="759" y="668"/>
			<point x="843" y="683" type="curve"/>
			<point x="839" y="710" type="line"/>
			<point x="727" y="700"/>
			<point x="697" y="697"/>
			<point x="571" y="710" type="curve"/>
			<point x="566" y="683" type="line"/>
			<point x="651" y="668"/>
			<point x="655" y="648"/>
			<point x="656" y="545" type="curve" smooth="yes"/>
			<point x="657" y="380" type="line"/>
			<point x="596" y="353" type="line"/>
			<point x="596" y="337" type="line"/>
			<point x="657" y="337" type="line"/>
			<point x="658" y="147" type="line"/>
			<point x="242" y="631" type="line"/>
			<point x="256" y="650"/>
			<point x="286" y="659"/>
			<point x="347" y="683" type="curve"/>
			<point x="343" y="710" type="line"/>
			<point x="201" y="680"/>
			<point x="171" y="677"/>
			<point x="25" y="710" type="curve"/>
			<point x="20" y="683" type="line"/>
			<point x="125" y="648"/>
			<point x="129" y="618"/>
			<point x="130" y="515" type="curve" smooth="yes"/>
			<point x="131" y="380" type="line"/>
			<point x="70" y="353" type="line"/>
			<point x="70" y="337" type="line"/>
			<point x="131" y="337" type="line"/>
			<point x="132" y="140" type="line" smooth="yes"/>
			<point x="133" y="39"/>
			<point x="141" y="44"/>
			<point x="39" y="18" type="curve"/>
		</contour>
	</outline>
</glyph>
<glyph name="O" format="2">
	<advance width="741"/>
	<unicode hex="004F"/>
	<anchor x="371" y="350" name="center"/>
	<anchor x="667" y="10" name="ogonek"/>
	<anchor x="371" y="700" name="top"/>
	<anchor x="721" y="700" name="topright"/>
	<anchor x="20" y="700" name="topleft"/>
	<anchor x="371" y="0" name="bottom"/>
	<outline>
		<contour>
			<point x="369" y="-10" type="curve"/>
			<point x="369" y="-10" type="line"/>
			<point x="569" y="-10"/>
			<point x="726" y="154"/>
			<point x="726" y="351" type="curve"/>
			<point x="726" y="552"/>
			<point x="569" y="712"/>
			<point x="369" y="712" type="curve"/>
			<point x="171" y="712"/>
			<point x="15" y="552"/>
			<point x="15" y="351" type="curve"/>
			<point x="15" y="154"/>
			<point x="171" y="-10"/>
		</contour>
		<contour>
			<point x="369" y="35" type="curve"/>
			<point x="369" y="35" type="line"/>
			<point x="219" y="35"/>
			<point x="125" y="165"/>
			<point x="125" y="351" type="curve"/>
			<point x="125" y="532"/>
			<point x="210" y="667"/>
			<point x="369" y="667" type="curve"/>
			<point x="514" y="667"/>
			<point x="616" y="530"/>
			<point x="616" y="351" type="curve"/>
			<point x="616" y="179"/>
			<point x="526" y="35"/>
		</contour>
	</outline>
</glyph>
<glyph name="P" format="2">
	<advance width="699"/>
	<unicode hex="0050"/>
	<anchor x="335" y="700" name="top"/>
	<anchor x="335" y="0" name="bottom"/>
	<outline>
		<contour>
			<point x="66" y="-9" type="line"/>
			<point x="148" y="8"/>
			<point x="194" y="8"/>
			<point x="296" y="-9" type="curve"/>
			<point x="301" y="17" type="line"/>
			<point x="218" y="50"/>
			<point x="212" y="60"/>
			<point x="211" y="138" type="curve" smooth="yes"/>
			<point x="211" y="186" type="line"/>
			<point x="243" y="166"/>
			<point x="296" y="131"/>
			<point x="368" y="104" type="curve"/>
			<point x="507" y="106"/>
			<point x="669" y="195"/>
			<point x="669" y="416" type="curve" smooth="yes"/>
			<point x="669" y="611"/>
			<point x="534" y="710"/>
			<point x="389" y="710" type="curve" smooth="yes"/>
			<point x="247" y="710"/>
			<point x="155" y="668"/>
			<point x="36" y="713" type="curve"/>
			<point x="25" y="686" type="line"/>
			<point x="91" y="658"/>
			<point x="111" y="642"/>
			<point x="111" y="568" type="curve" smooth="yes"/>
			<point x="111" y="376" type="line"/>
			<point x="97" y="371"/>
			<point x="83" y="363"/>
			<point x="73" y="351" type="curve"/>
			<point x="75" y="339" type="line"/>
			<point x="110" y="320"/>
			<point x="112" y="284"/>
			<point x="112" y="250" type="curve" smooth="yes"/>
			<point x="111" y="133" type="line" smooth="yes"/>
			<point x="111" y="76"/>
			<point x="115" y="51"/>
			<point x="58" y="13" type="curve"/>
		</contour>
		<contour>
			<point x="370" y="165" type="curve" smooth="yes"/>
			<point x="319" y="165"/>
			<point x="256" y="187"/>
			<point x="210" y="241" type="curve"/>
			<point x="206" y="620" type="line"/>
			<point x="242" y="649"/>
			<point x="298" y="673"/>
			<point x="373" y="673" type="curve" smooth="yes"/>
			<point x="494" y="673"/>
			<point x="571" y="571"/>
			<point x="571" y="420" type="curve" smooth="yes"/>
			<point x="571" y="259"/>
			<point x="480" y="165"/>
		</contour>
	</outline>
</glyph>
<glyph name="Q" format="2">
	<advance width="918"/>
	<unicode hex="0051"/>
	<anchor x="371" y="350" name="center"/>
	<anchor x="667" y="10" name="ogonek"/>
	<anchor x="470" y="700" name="top"/>
	<anchor x="721" y="700" name="topright"/>
	<anchor x="20" y="700" name="topleft"/>
	<anchor x="470" y="0" name="bottom"/>
	<outline>
		<contour>
			<point x="369" y="-10" type="curve"/>
			<point x="369" y="-10" type="line"/>
			<point x="376" y="-10"/>
			<point x="383" y="-10"/>
			<point x="391" y="-9" type="curve"/>
			<point x="389" y="-10" type="line"/>
			<point x="560" y="-10"/>
			<point x="672" y="63"/>
			<point x="774" y="63" type="curve"/>
			<point x="846" y="63"/>
			<point x="789" y="-9"/>
			<point x="856" y="-9" type="curve"/>
			<point x="888" y="-9"/>
			<point x="912" y="27"/>
			<point x="918" y="50" type="curve"/>
			<point x="901" y="56" type="line"/>
			<point x="882" y="26"/>
			<point x="859" y="21"/>
			<point x="859" y="46" type="curve"/>
			<point x="859" y="79"/>
			<point x="876" y="149"/>
			<point x="802" y="149" type="curve"/>
			<point x="743" y="149"/>
			<point x="657" y="95"/>
			<point x="587" y="65" type="curve"/>
			<point x="672" y="131"/>
			<point x="726" y="235"/>
			<point x="726" y="351" type="curve"/>
			<point x="726" y="552"/>
			<point x="569" y="712"/>
			<point x="369" y="712" type="curve"/>
			<point x="171" y="712"/>
			<point x="15" y="552"/>
			<point x="15" y="351" type="curve"/>
			<point x="15" y="154"/>
			<point x="171" y="-10"/>
		</contour>
		<contour>
			<point x="369" y="35" type="curve"/>
			<point x="369" y="35" type="line"/>
			<point x="219" y="35"/>
			<point x="125" y="165"/>
			<point x="125" y="351" type="curve"/>
			<point x="125" y="532"/>
			<point x="210" y="667"/>
			<point x="369" y="667" type="curve"/>
			<point x="514" y="667"/>
			<point x="616" y="530"/>
			<point x="616" y="351" type="curve"/>
			<point x="616" y="179"/>
			<point x="526" y="35"/>
		</contour>
	</outline>
</glyph>
<glyph name="R" format="2">
	<advance width="702"/>
	<unicode hex="0052"/>
	<anchor x="359" y="700" name="top"/>
	<anchor x="359" y="0" name="bottom"/>
	<outline>
		<contour>
			<point x="40" y="-10" type="line"/>
			<point x="126" y="4"/>
			<point x="242" y="3"/>
			<point x="324" y="-10" type="curve"/>
			<point x="330" y="15" type="line"/>
			<point x="242" y="48"/>
			<point x="227" y="81"/>
			<point x="227" y="163" type="curve" smooth="yes"/>
			<point x="227" y="292" type="line" smooth="yes"/>
			<point x="227" y="344"/>
			<point x="261" y="357"/>
			<point x="285" y="357" type="curve" smooth="yes"/>
			<point x="316" y="357" type="line" smooth="yes"/>
			<point x="452" y="357"/>
			<point x="525" y="298"/>
			<point x="525" y="214" type="curve" smooth="yes"/>
			<point x="525" y="157"/>
			<point x="506" y="102"/>
			<point x="506" y="59" type="curve" smooth="yes"/>
			<point x="506" y="-29"/>
			<point x="643" y="-36"/>
			<point x="697" y="68" type="curve"/>
			<point x="685" y="85" type="line"/>
			<point x="619" y="38"/>
			<point x="602" y="67"/>
			<point x="602" y="84" type="curve" smooth="yes"/>
			<point x="602" y="128"/>
			<point x="645" y="155"/>
			<point x="645" y="185" type="curve" smooth="yes"/>
			<point x="645" y="260"/>
			<point x="543" y="340"/>
			<point x="439" y="374" type="curve"/>
			<point x="501" y="384"/>
			<point x="635" y="420"/>
			<point x="635" y="542" type="curve" smooth="yes"/>
			<point x="635" y="676"/>
			<point x="461" y="710"/>
			<point x="375" y="710" type="curve" smooth="yes"/>
			<point x="228" y="710"/>
			<point x="177" y="674"/>
			<point x="33" y="704" type="curve"/>
			<point x="20" y="676" type="line"/>
			<point x="103" y="641"/>
			<point x="127" y="620"/>
			<point x="127" y="566" type="curve" smooth="yes"/>
			<point x="128" y="421" type="line"/>
			<point x="85" y="389" type="line"/>
			<point x="85" y="378" type="line"/>
			<point x="127" y="343" type="line"/>
			<point x="127" y="148" type="line" smooth="yes"/>
			<point x="127" y="70"/>
			<point x="127" y="52"/>
			<point x="34" y="14" type="curve"/>
		</contour>
		<contour>
			<point x="228" y="396" type="line"/>
			<point x="225" y="563" type="line" smooth="yes"/>
			<point x="224" y="626"/>
			<point x="273" y="668"/>
			<point x="362" y="668" type="curve" smooth="yes"/>
			<point x="437" y="668"/>
			<point x="520" y="621"/>
			<point x="523" y="537" type="curve" smooth="yes"/>
			<point x="525" y="471"/>
			<point x="479" y="396"/>
			<point x="383" y="396" type="curve" smooth="yes"/>
		</contour>
	</outline>
</glyph>
<glyph name="S" format="2">
	<advance width="718"/>
	<unicode hex="0053"/>
	<anchor x="353" y="700" name="top"/>
	<anchor x="353" y="0" name="bottom"/>
	<outline>
		<contour>
			<point x="48" y="-29" type="line"/>
			<point x="79" y="0"/>
			<point x="125" y="33"/>
			<point x="146" y="33" type="curve" smooth="yes"/>
			<point x="180" y="33"/>
			<point x="316" y="-9"/>
			<point x="397" y="-9" type="curve" smooth="yes"/>
			<point x="508" y="-9"/>
			<point x="675" y="53"/>
			<point x="675" y="219" type="curve" smooth="yes"/>
			<point x="675" y="356"/>
			<point x="584" y="422"/>
			<point x="441" y="422" type="curve" smooth="yes"/>
			<point x="371" y="422"/>
			<point x="335" y="418"/>
			<point x="276" y="418" type="curve" smooth="yes"/>
			<point x="203" y="418"/>
			<point x="155" y="459"/>
			<point x="155" y="527" type="curve" smooth="yes"/>
			<point x="155" y="620"/>
			<point x="250" y="672"/>
			<point x="364" y="672" type="curve" smooth="yes"/>
			<point x="488" y="672"/>
			<point x="589" y="602"/>
			<point x="653" y="471" type="curve"/>
			<point x="682" y="485" type="line"/>
			<point x="657" y="562"/>
			<point x="648" y="625"/>
			<point x="688" y="729" type="curve"/>
			<point x="667" y="740" type="line"/>
			<point x="635" y="698"/>
			<point x="612" y="689"/>
			<point x="583" y="689" type="curve" smooth="yes"/>
			<point x="532" y="689"/>
			<point x="484" y="712"/>
			<point x="363" y="712" type="curve" smooth="yes"/>
			<point x="217" y="712"/>
			<point x="55" y="656"/>
			<point x="55" y="484" type="curve" smooth="yes"/>
			<point x="55" y="366"/>
			<point x="151" y="324"/>
			<point x="253" y="324" type="curve" smooth="yes"/>
			<point x="323" y="324"/>
			<point x="362" y="327"/>
			<point x="430" y="327" type="curve" smooth="yes"/>
			<point x="524" y="327"/>
			<point x="587" y="285"/>
			<point x="587" y="199" type="curve" smooth="yes"/>
			<point x="587" y="90"/>
			<point x="507" y="44"/>
			<point x="389" y="45" type="curve" smooth="yes"/>
			<point x="261" y="46"/>
			<point x="177" y="111"/>
			<point x="91" y="263" type="curve"/>
			<point x="59" y="249" type="line"/>
			<point x="110" y="150"/>
			<point x="116" y="71"/>
			<point x="30" y="-9" type="curve"/>
		</contour>
	</outline>
</glyph>
<glyph name="T" format="2">
	<advance width="724"/>
	<unicode hex="0054"/>
	<anchor x="362" y="350" name="center"/>
	<anchor x="362" y="0" name="bottom"/>
	<anchor x="362" y="700" name="top"/>
	<outline>
		<contour>
			<point x="165" y="22" type="curve"/>
			<point x="165" y="-8" type="line"/>
			<point x="303" y="3"/>
			<point x="414" y="3"/>
			<point x="562" y="-8" type="curve"/>
			<point x="562" y="23" type="line"/>
			<point x="458" y="54"/>
			<point x="426" y="78"/>
			<point x="421" y="188" type="curve"/>
			<point x="402" y="613" type="line"/>
			<point x="463" y="613" type="line" smooth="yes"/>
			<point x="622" y="613"/>
			<point x="663" y="585"/>
			<point x="683" y="528" type="curve"/>
			<point x="719" y="536" type="line"/>
			<point x="704" y="622"/>
			<point x="701" y="682"/>
			<point x="716" y="748" type="curve"/>
			<point x="688" y="758" type="line"/>
			<point x="670" y="729"/>
			<point x="612" y="681"/>
			<point x="454" y="681" type="curve"/>
			<point x="388" y="681" type="line"/>
			<point x="369" y="718" type="line"/>
			<point x="354" y="719" type="line"/>
			<point x="334" y="680" type="line"/>
			<point x="280" y="680" type="line" smooth="yes"/>
			<point x="112" y="680"/>
			<point x="54" y="728"/>
			<point x="36" y="757" type="curve"/>
			<point x="8" y="747" type="line"/>
			<point x="23" y="681"/>
			<point x="20" y="621"/>
			<point x="5" y="535" type="curve"/>
			<point x="41" y="527" type="line"/>
			<point x="61" y="584"/>
			<point x="102" y="612"/>
			<point x="291" y="613" type="curve"/>
			<point x="321" y="613" type="line"/>
			<point x="307" y="187" type="line" smooth="yes"/>
			<point x="304" y="78"/>
			<point x="269" y="58"/>
		</contour>
	</outline>
</glyph>
<glyph name="U" format="2">
	<advance width="730"/>
	<unicode hex="0055"/>
	<anchor x="675" y="10" name="ogonek"/>
	<anchor x="356" y="700" name="top"/>
	<anchor x="735" y="700" name="topright"/>
	<anchor x="356" y="0" name="bottom"/>
	<outline>
		<contour>
			<point x="354" y="-10" type="curve"/>
			<point x="354" y="-10" type="line"/>
			<point x="556" y="-10"/>
			<point x="628" y="86"/>
			<point x="628" y="237" type="curve"/>
			<point x="628" y="295"/>
			<point x="637" y="469"/>
			<point x="638" y="559" type="curve"/>
			<point x="639" y="628"/>
			<point x="686" y="659"/>
			<point x="725" y="679" type="curve"/>
			<point x="724" y="708" type="line"/>
			<point x="638" y="697"/>
			<point x="561" y="697"/>
			<point x="475" y="708" type="curve"/>
			<point x="474" y="684" type="line"/>
			<point x="536" y="659"/>
			<point x="564" y="618"/>
			<point x="568" y="560" type="curve"/>
			<point x="572" y="506"/>
			<point x="577" y="300"/>
			<point x="577" y="236" type="curve"/>
			<point x="577" y="107"/>
			<point x="497" y="33"/>
			<point x="377" y="33" type="curve"/>
			<point x="249" y="33"/>
			<point x="181" y="118"/>
			<point x="181" y="256" type="curve"/>
			<point x="181" y="317"/>
			<point x="182" y="470"/>
			<point x="192" y="559" type="curve"/>
			<point x="199" y="619"/>
			<point x="233" y="664"/>
			<point x="271" y="684" type="curve"/>
			<point x="270" y="708" type="line"/>
			<point x="184" y="700"/>
			<point x="93" y="700"/>
			<point x="7" y="708" type="curve"/>
			<point x="5" y="684" type="line"/>
			<point x="53" y="656"/>
			<point x="83" y="625"/>
			<point x="86" y="560" type="curve"/>
			<point x="88" y="507"/>
			<point x="86" y="300"/>
			<point x="86" y="236" type="curve"/>
			<point x="86" y="99"/>
			<point x="161" y="-10"/>
		</contour>
	</outline>
</glyph>
<glyph name="V" format="2">
	<advance width="753"/>
	<unicode hex="0056"/>
	<anchor x="373" y="700" name="top"/>
	<anchor x="373" y="0" name="bottom"/>
	<outline>
		<contour>
			<point x="5" y="632" type="curve"/>
			<point x="370" y="-11" type="line"/>
			<point x="391" y="-11" type="line"/>
			<point x="748" y="640" type="line"/>
			<point x="690" y="657"/>
			<point x="633" y="680"/>
			<point x="575" y="711" type="curve"/>
			<point x="562" y="690" type="line"/>
			<point x="628" y="621"/>
			<point x="622" y="588"/>
			<point x="592" y="521" type="curve"/>
			<point x="393" y="82" type="line"/>
			<point x="197" y="541" type="line" smooth="yes"/>
			<point x="168" y="609"/>
			<point x="184" y="642"/>
			<point x="217" y="685" type="curve"/>
			<point x="205" y="711" type="line"/>
			<point x="138" y="680"/>
			<point x="72" y="653"/>
		</contour>
	</outline>
</glyph>
<glyph name="W" format="2">
	<advance width="803"/>
	<unicode hex="0057"/>
	<outline>
		<contour>
			<point x="5" y="632" type="curve"/>
			<point x="400" y="-11" type="line"/>
			<point x="421" y="-11" type="line"/>
			<point x="798" y="640" type="line"/>
			<point x="740" y="657"/>
			<point x="683" y="680"/>
			<point x="625" y="711" type="curve"/>
			<point x="612" y="690" type="line"/>
			<point x="678" y="621"/>
			<point x="674" y="586"/>
			<point x="642" y="521" type="curve"/>
			<point x="423" y="78" type="line"/>
			<point x="197" y="541" type="line" smooth="yes"/>
			<point x="165" y="607"/>
			<point x="184" y="642"/>
			<point x="217" y="685" type="curve"/>
			<point x="205" y="711" type="line"/>
			<point x="138" y="680"/>
			<point x="72" y="653"/>
		</contour>
		<contour>
			<point x="249" y="594" type="curve"/>
			<point x="424" y="274" type="line"/>
			<point x="434" y="274" type="line"/>
			<point x="605" y="597" type="line"/>
			<point x="578" y="605"/>
			<point x="534" y="624"/>
			<point x="508" y="638" type="curve"/>
			<point x="498" y="620" type="line"/>
			<point x="529" y="588"/>
			<point x="524" y="564"/>
			<point x="512" y="532" type="curve"/>
			<point x="435" y="323" type="line"/>
			<point x="359" y="551" type="line" smooth="yes"/>
			<point x="348" y="583"/>
			<point x="363" y="608"/>
			<point x="378" y="629" type="curve"/>
			<point x="373" y="640" type="line"/>
			<point x="341" y="626"/>
			<point x="281" y="603"/>
		</contour>
	</outline>
</glyph>
<glyph name="X" format="2">
	<advance width="611"/>
	<unicode hex="0058"/>
	<anchor x="310" y="700" name="top"/>
	<anchor x="310" y="0" name="bottom"/>
	<outline>
		<contour>
			<point x="196" y="-39" type="curve"/>
			<point x="196" y="-39" type="line"/>
			<point x="215" y="-18" type="line"/>
			<point x="132" y="56"/>
			<point x="122" y="86"/>
			<point x="180" y="161" type="curve"/>
			<point x="295" y="309" type="line"/>
			<point x="423" y="161" type="line" smooth="yes"/>
			<point x="493" y="80"/>
			<point x="491" y="63"/>
			<point x="428" y="-21" type="curve"/>
			<point x="444" y="-39" type="line"/>
			<point x="498" y="11"/>
			<point x="552" y="56"/>
			<point x="606" y="94" type="curve"/>
			<point x="364" y="379" type="line"/>
			<point x="584" y="621" type="line"/>
			<point x="522" y="649"/>
			<point x="461" y="681"/>
			<point x="403" y="717" type="curve"/>
			<point x="385" y="694" type="line"/>
			<point x="454" y="627"/>
			<point x="489" y="612"/>
			<point x="439" y="549" type="curve"/>
			<point x="333" y="416" type="line"/>
			<point x="217" y="552" type="line" smooth="yes"/>
			<point x="173" y="604"/>
			<point x="194" y="644"/>
			<point x="233" y="696" type="curve"/>
			<point x="216" y="717" type="line"/>
			<point x="160" y="679"/>
			<point x="99" y="643"/>
			<point x="35" y="611" type="curve"/>
			<point x="266" y="343" type="line"/>
			<point x="5" y="78" type="line"/>
			<point x="73" y="43"/>
			<point x="136" y="4"/>
		</contour>
		<contour>
			<point x="5" y="78" type="move"/>
		</contour>
	</outline>
</glyph>
<glyph name="Y" format="2">
	<advance width="584"/>
	<unicode hex="0059"/>
	<anchor x="276" y="700" name="top"/>
	<anchor x="276" y="0" name="bottom"/>
	<anchor x="-24" y="700" name="topleft"/>
	<outline>
		<contour>
			<point x="106" y="-7" type="line"/>
			<point x="196" y="3"/>
			<point x="369" y="4"/>
			<point x="461" y="-7" type="curve"/>
			<point x="461" y="20" type="line"/>
			<point x="409" y="27"/>
			<point x="335" y="63"/>
			<point x="334" y="114" type="curve" smooth="yes"/>
			<point x="330" y="288" type="line"/>
			<point x="579" y="656" type="line"/>
			<point x="406" y="715" type="line"/>
			<point x="392" y="688" type="line"/>
			<point x="446" y="658"/>
			<point x="484" y="636"/>
			<point x="464" y="601" type="curve" smooth="yes"/>
			<point x="307" y="320" type="line"/>
			<point x="162" y="583" type="line" smooth="yes"/>
			<point x="135" y="631"/>
			<point x="141" y="648"/>
			<point x="198" y="690" type="curve"/>
			<point x="184" y="714" type="line"/>
			<point x="124" y="686"/>
			<point x="75" y="671"/>
			<point x="5" y="643" type="curve"/>
			<point x="237" y="275" type="line"/>
			<point x="237" y="114" type="line" smooth="yes"/>
			<point x="237" y="63"/>
			<point x="148" y="28"/>
			<point x="106" y="20" type="curve"/>
		</contour>
	</outline>
</glyph>
<glyph name="Z" format="2">
	<advance width="700"/>
	<unicode hex="005A"/>
	<anchor x="389" y="700" name="top"/>
	<anchor x="389" y="0" name="bottom"/>
	<outline>
		<contour>
			<point x="20" y="17" type="curve"/>
			<point x="27" y="-6" type="line"/>
			<point x="248" y="-2"/>
			<point x="412" y="-3"/>
			<point x="635" y="-5" type="curve"/>
			<point x="658" y="186" type="line"/>
			<point x="624" y="189" type="line"/>
			<point x="601" y="81"/>
			<point x="509" y="55"/>
			<point x="426" y="52" type="curve"/>
			<point x="194" y="45" type="line"/>
			<point x="351" y="264"/>
			<point x="602" y="625"/>
			<point x="680" y="689" type="curve"/>
			<point x="668" y="710" type="line"/>
			<point x="482" y="695"/>
			<point x="295" y="692"/>
			<point x="109" y="710" type="curve"/>
			<point x="66" y="546" type="line"/>
			<point x="95" y="539" type="line"/>
			<point x="159" y="631"/>
			<point x="194" y="651"/>
			<point x="316" y="653" type="curve"/>
			<point x="516" y="656" type="line"/>
			<point x="443" y="556"/>
			<point x="156" y="127"/>
		</contour>
	</outline>
</glyph>
<glyph name="b" format="2">
	<advance width="476"/>
	<unicode hex="0062"/>
	<anchor x="236" y="700" name="top"/>
	<anchor x="236" y="0" name="bottom"/>
	<outline>
		<contour>
			<point x="250" y="-9" type="curve" smooth="yes"/>
			<point x="281" y="-9"/>
			<point x="456" y="78"/>
			<point x="456" y="228" type="curve" smooth="yes"/>
			<point x="456" y="335"/>
			<point x="409" y="401"/>
			<point x="268" y="401" type="curve" smooth="yes"/>
			<point x="249" y="401"/>
			<point x="204" y="390"/>
			<point x="154" y="377" type="curve"/>
			<point x="155" y="500"/>
			<point x="159" y="633"/>
			<point x="169" y="696" type="curve"/>
			<point x="149" y="711" type="line"/>
			<point x="104" y="678"/>
			<point x="61" y="652"/>
			<point x="20" y="636" type="curve"/>
			<point x="21" y="615" type="line"/>
			<point x="44" y="601"/>
			<point x="66" y="584"/>
			<point x="66" y="540" type="curve" smooth="yes"/>
			<point x="66" y="532"/>
			<point x="68" y="452"/>
			<point x="69" y="353" type="curve"/>
			<point x="56" y="350"/>
			<point x="44" y="346"/>
			<point x="33" y="343" type="curve"/>
			<point x="33" y="333" type="line"/>
			<point x="70" y="313" type="line"/>
			<point x="71" y="197"/>
			<point x="72" y="66"/>
			<point x="69" y="0" type="curve"/>
			<point x="118" y="2"/>
			<point x="189" y="-9"/>
		</contour>
		<contour>
			<point x="275" y="54" type="curve" smooth="yes"/>
			<point x="204" y="54"/>
			<point x="158" y="81"/>
			<point x="156" y="138" type="curve" smooth="yes"/>
			<point x="155" y="172"/>
			<point x="154" y="252"/>
			<point x="154" y="343" type="curve"/>
			<point x="177" y="351"/>
			<point x="204" y="356"/>
			<point x="233" y="356" type="curve" smooth="yes"/>
			<point x="325" y="356"/>
			<point x="381" y="284"/>
			<point x="381" y="202" type="curve" smooth="yes"/>
			<point x="381" y="109"/>
			<point x="335" y="54"/>
		</contour>
	</outline>
</glyph>
<glyph name="c" format="2">
	<advance width="298"/>
	<unicode hex="0063"/>
	<anchor x="161" y="390" name="top"/>
	<anchor x="161" y="0" name="bottom"/>
	<outline>
		<contour>
			<point x="180" y="-8" type="curve" smooth="yes"/>
			<point x="227" y="-8"/>
			<point x="264" y="25"/>
			<point x="298" y="42" type="curve"/>
			<point x="293" y="65" type="line"/>
			<point x="191" y="36"/>
			<point x="110" y="83"/>
			<point x="110" y="205" type="curve" smooth="yes"/>
			<point x="110" y="249"/>
			<point x="114" y="287"/>
			<point x="129" y="330" type="curve"/>
			<point x="177" y="333"/>
			<point x="227" y="325"/>
			<point x="264" y="306" type="curve"/>
			<point x="270" y="309" type="line"/>
			<point x="281" y="388" type="line"/>
			<point x="256" y="395"/>
			<point x="220" y="401"/>
			<point x="147" y="391" type="curve"/>
			<point x="75" y="338" type="line"/>
			<point x="55" y="309"/>
			<point x="35" y="266"/>
			<point x="35" y="191" type="curve" smooth="yes"/>
			<point x="35" y="76"/>
			<point x="80" y="-8"/>
		</contour>
	</outline>
</glyph>
<glyph name="d" format="2">
	<advance width="459"/>
	<unicode hex="0064"/>
	<anchor x="221" y="195" name="center"/>
	<anchor x="221" y="700" name="top"/>
	<anchor x="439" y="390" name="topright"/>
	<anchor x="221" y="0" name="bottom"/>
	<outline>
		<contour>
			<point x="192" y="-10" type="curve"/>
			<point x="192" y="-10" type="line"/>
			<point x="232" y="17"/>
			<point x="265" y="46"/>
			<point x="317" y="100" type="curve"/>
			<point x="322" y="66"/>
			<point x="326" y="36"/>
			<point x="330" y="1" type="curve"/>
			<point x="345" y="-10" type="line"/>
			<point x="371" y="3"/>
			<point x="401" y="12"/>
			<point x="439" y="35" type="curve"/>
			<point x="439" y="55" type="line"/>
			<point x="380" y="144"/>
			<point x="392" y="529"/>
			<point x="421" y="699" type="curve"/>
			<point x="400" y="711" type="line"/>
			<point x="358" y="701"/>
			<point x="291" y="691"/>
			<point x="240" y="691" type="curve"/>
			<point x="240" y="663" type="line"/>
			<point x="285" y="651"/>
			<point x="312" y="651"/>
			<point x="312" y="582" type="curve"/>
			<point x="312" y="388" type="line"/>
			<point x="281" y="393"/>
			<point x="243" y="399"/>
			<point x="235" y="399" type="curve"/>
			<point x="118" y="399"/>
			<point x="20" y="312"/>
			<point x="20" y="179" type="curve"/>
			<point x="20" y="46"/>
			<point x="104" y="-10"/>
		</contour>
		<contour>
			<point x="193" y="84" type="curve"/>
			<point x="193" y="84" type="line"/>
			<point x="117" y="84"/>
			<point x="71" y="125"/>
			<point x="71" y="210" type="curve"/>
			<point x="71" y="284"/>
			<point x="123" y="334"/>
			<point x="210" y="334" type="curve"/>
			<point x="255" y="334"/>
			<point x="289" y="318"/>
			<point x="313" y="300" type="curve"/>
			<point x="313" y="140" type="line"/>
			<point x="276" y="98"/>
			<point x="238" y="84"/>
		</contour>
	</outline>
</glyph>
<glyph name="e" format="2">
	<advance width="301"/>
	<unicode hex="0065"/>
	<anchor x="291" y="10" name="ogonek"/>
	<anchor x="155" y="0" name="bottom"/>
	<anchor x="155" y="390" name="top"/>
	<outline>
		<contour>
			<point x="214" y="-10" type="curve"/>
			<point x="214" y="-10" type="line"/>
			<point x="250" y="10"/>
			<point x="256" y="24"/>
			<point x="291" y="41" type="curve"/>
			<point x="283" y="68" type="line"/>
			<point x="266" y="63"/>
			<point x="254" y="57"/>
			<point x="225" y="57" type="curve"/>
			<point x="164" y="57"/>
			<point x="127" y="89"/>
			<point x="110" y="141" type="curve"/>
			<point x="180" y="190"/>
			<point x="232" y="214"/>
			<point x="292" y="254" type="curve"/>
			<point x="296" y="271" type="line"/>
			<point x="259" y="312"/>
			<point x="217" y="375"/>
			<point x="176" y="403" type="curve"/>
			<point x="40" y="331" type="line"/>
			<point x="30" y="294"/>
			<point x="25" y="226"/>
			<point x="25" y="169" type="curve"/>
			<point x="25" y="60"/>
			<point x="101" y="-10"/>
		</contour>
		<contour>
			<point x="103" y="172" type="curve"/>
			<point x="103" y="172" type="line"/>
			<point x="101" y="185"/>
			<point x="100" y="199"/>
			<point x="100" y="213" type="curve"/>
			<point x="100" y="268"/>
			<point x="109" y="321"/>
			<point x="129" y="342" type="curve"/>
			<point x="179" y="300"/>
			<point x="212" y="255"/>
			<point x="212" y="240" type="curve"/>
			<point x="183" y="216"/>
			<point x="148" y="199"/>
		</contour>
	</outline>
</glyph>
<glyph name="f" format="2">
	<advance width="246"/>
	<unicode hex="0066"/>
	<anchor x="109" y="700" name="top"/>
	<anchor x="109" y="0" name="bottom"/>
	<outline>
		<contour>
			<point x="5" y="21" type="curve"/>
			<point x="5" y="-6" type="line"/>
			<point x="73" y="1"/>
			<point x="145" y="0"/>
			<point x="222" y="-6" type="curve"/>
			<point x="222" y="21" type="line"/>
			<point x="152" y="38"/>
			<point x="153" y="38"/>
			<point x="153" y="109" type="curve"/>
			<point x="153" y="346" type="line"/>
			<point x="262" y="346" type="line"/>
			<point x="262" y="390" type="line"/>
			<point x="152" y="390" type="line"/>
			<point x="152" y="617" type="line"/>
			<point x="175" y="617"/>
			<point x="232" y="611"/>
			<point x="272" y="608" type="curve"/>
			<point x="276" y="695" type="line"/>
			<point x="241" y="699"/>
			<point x="202" y="699"/>
			<point x="174" y="701" type="curve"/>
			<point x="131" y="662"/>
			<point x="108" y="654"/>
			<point x="67" y="618" type="curve"/>
			<point x="67" y="390" type="line"/>
			<point x="16" y="390" type="line"/>
			<point x="16" y="368" type="line"/>
			<point x="68" y="349" type="line"/>
			<point x="68" y="108" type="line" smooth="yes"/>
			<point x="68" y="37"/>
			<point x="67" y="37"/>
		</contour>
	</outline>
</glyph>
<glyph name="g" format="2">
	<advance width="410"/>
	<unicode hex="0067"/>
	<anchor x="223" y="390" name="top"/>
	<anchor x="243" y="-200" name="bottom"/>
	<outline>
		<contour>
			<point x="216" y="-212" type="curve"/>
			<point x="216" y="-212" type="line"/>
			<point x="312" y="-212"/>
			<point x="405" y="-164"/>
			<point x="405" y="-78" type="curve"/>
			<point x="405" y="11"/>
			<point x="345" y="28"/>
			<point x="253" y="41" type="curve"/>
			<point x="189" y="50"/>
			<point x="155" y="59"/>
			<point x="145" y="76" type="curve"/>
			<point x="154" y="88"/>
			<point x="183" y="113"/>
			<point x="218" y="123" type="curve"/>
			<point x="223" y="124"/>
			<point x="228" y="125"/>
			<point x="232" y="126" type="curve"/>
			<point x="236" y="126" type="line"/>
			<point x="235" y="126" type="line" smooth="yes"/>
			<point x="302" y="143"/>
			<point x="357" y="191"/>
			<point x="357" y="254" type="curve"/>
			<point x="357" y="287"/>
			<point x="340" y="317"/>
			<point x="317" y="341" type="curve"/>
			<point x="385" y="340" type="line"/>
			<point x="385" y="394" type="line"/>
			<point x="299" y="393"/>
			<point x="268" y="393"/>
			<point x="213" y="393" type="curve"/>
			<point x="211" y="393"/>
			<point x="210" y="393"/>
			<point x="208" y="393" type="curve"/>
			<point x="205" y="393" type="line" smooth="yes"/>
			<point x="96" y="388"/>
			<point x="18" y="343"/>
			<point x="18" y="245" type="curve"/>
			<point x="18" y="165"/>
			<point x="77" y="131"/>
			<point x="147" y="122" type="curve"/>
			<point x="125" y="106"/>
			<point x="99" y="96"/>
			<point x="80" y="85" type="curve"/>
			<point x="80" y="65" type="line"/>
			<point x="97" y="51"/>
			<point x="124" y="29"/>
			<point x="155" y="14" type="curve"/>
			<point x="78" y="-8"/>
			<point x="15" y="-27"/>
			<point x="15" y="-101" type="curve"/>
			<point x="15" y="-175"/>
			<point x="111" y="-212"/>
		</contour>
		<contour>
			<point x="224" y="-139" type="curve"/>
			<point x="224" y="-139" type="line"/>
			<point x="162" y="-139"/>
			<point x="109" y="-120"/>
			<point x="109" y="-73" type="curve"/>
			<point x="109" y="-40"/>
			<point x="133" y="-13"/>
			<point x="218" y="-2" type="curve"/>
			<point x="303" y="-4"/>
			<point x="372" y="-20"/>
			<point x="372" y="-67" type="curve"/>
			<point x="372" y="-126"/>
			<point x="292" y="-139"/>
		</contour>
		<contour>
			<point x="169" y="153" type="curve"/>
			<point x="169" y="153" type="line"/>
			<point x="126" y="153"/>
			<point x="81" y="178"/>
			<point x="81" y="226" type="curve"/>
			<point x="81" y="275"/>
			<point x="129" y="314"/>
			<point x="196" y="314" type="curve"/>
			<point x="259" y="314"/>
			<point x="291" y="281"/>
			<point x="291" y="239" type="curve"/>
			<point x="291" y="190"/>
			<point x="235" y="153"/>
		</contour>
	</outline>
</glyph>
<glyph name="h" format="2">
	<advance width="478"/>
	<unicode hex="0068"/>
	<anchor x="236" y="350" name="center"/>
	<anchor x="236" y="0" name="bottom"/>
	<anchor x="236" y="700" name="top"/>
	<outline>
		<contour>
			<point x="430" y="-7" type="curve"/>
			<point x="430" y="-7" type="line"/>
			<point x="431" y="24" type="line"/>
			<point x="414" y="27"/>
			<point x="396" y="29"/>
			<point x="369" y="35" type="curve"/>
			<point x="389" y="67"/>
			<point x="458" y="127"/>
			<point x="458" y="224" type="curve"/>
			<point x="458" y="329"/>
			<point x="400" y="402"/>
			<point x="274" y="402" type="curve"/>
			<point x="248" y="402"/>
			<point x="193" y="369"/>
			<point x="153" y="349" type="curve"/>
			<point x="153" y="449"/>
			<point x="154" y="550"/>
			<point x="156" y="621" type="curve"/>
			<point x="157" y="664"/>
			<point x="156" y="664"/>
			<point x="186" y="690" type="curve"/>
			<point x="172" y="714" type="line"/>
			<point x="120" y="686"/>
			<point x="61" y="658"/>
			<point x="20" y="636" type="curve"/>
			<point x="29" y="608" type="line"/>
			<point x="59" y="618"/>
			<point x="57" y="634"/>
			<point x="60" y="590" type="curve"/>
			<point x="70" y="426"/>
			<point x="73" y="261"/>
			<point x="71" y="97" type="curve"/>
			<point x="70" y="35"/>
			<point x="75" y="35"/>
			<point x="30" y="19" type="curve"/>
			<point x="30" y="-6" type="line"/>
			<point x="71" y="1"/>
			<point x="147" y="0"/>
			<point x="204" y="-6" type="curve"/>
			<point x="204" y="19" type="line"/>
			<point x="154" y="36"/>
			<point x="157" y="36"/>
			<point x="155" y="107" type="curve"/>
			<point x="153" y="164"/>
			<point x="153" y="238"/>
			<point x="153" y="314" type="curve"/>
			<point x="177" y="330"/>
			<point x="209" y="337"/>
			<point x="243" y="337" type="curve"/>
			<point x="312" y="337"/>
			<point x="398" y="291"/>
			<point x="398" y="185" type="curve"/>
			<point x="398" y="93"/>
			<point x="342" y="51"/>
			<point x="273" y="23" type="curve"/>
			<point x="272" y="-5" type="line"/>
			<point x="330" y="1"/>
			<point x="393" y="-2"/>
		</contour>
	</outline>
</glyph>
<glyph name="i" format="2">
	<advance width="201"/>
	<unicode hex="0069"/>
	<anchor x="101" y="0" name="bottom"/>
	<outline>
		<contour>
			<point x="17" y="18" type="curve"/>
			<point x="17" y="-6" type="line"/>
			<point x="58" y="1"/>
			<point x="134" y="0"/>
			<point x="191" y="-6" type="curve"/>
			<point x="191" y="18" type="line"/>
			<point x="141" y="35"/>
			<point x="141" y="35"/>
			<point x="142" y="106" type="curve"/>
			<point x="144" y="236"/>
			<point x="136" y="297"/>
			<point x="153" y="408" type="curve"/>
			<point x="133" y="419" type="line"/>
			<point x="91" y="386"/>
			<point x="51" y="376"/>
			<point x="10" y="368" type="curve"/>
			<point x="11" y="349" type="line"/>
			<point x="34" y="335"/>
			<point x="58" y="338"/>
			<point x="58" y="294" type="curve"/>
			<point x="58" y="96" type="line" smooth="yes"/>
			<point x="58" y="34"/>
			<point x="62" y="34"/>
		</contour>
		<contour>
			<point x="97" y="546" type="line"/>
			<point x="132" y="526" type="line"/>
			<point x="183" y="682" type="line"/>
			<point x="126" y="703" type="line"/>
			<point x="118" y="699" type="line"/>
		</contour>
	</outline>
</glyph>
<glyph name="j" format="2">
	<advance width="203"/>
	<unicode hex="006A"/>
	<outline>
		<contour>
			<point x="52" y="-146" type="line"/>
			<point x="82" y="-87"/>
			<point x="105" y="-35"/>
			<point x="147" y="26" type="curve"/>
			<point x="149" y="156"/>
			<point x="141" y="297"/>
			<point x="158" y="408" type="curve"/>
			<point x="138" y="419" type="line"/>
			<point x="96" y="386"/>
			<point x="56" y="376"/>
			<point x="15" y="368" type="curve"/>
			<point x="16" y="349" type="line"/>
			<point x="39" y="335"/>
			<point x="63" y="338"/>
			<point x="63" y="294" type="curve" smooth="yes"/>
			<point x="63" y="86" type="line" smooth="yes"/>
			<point x="63" y="10"/>
			<point x="52" y="-55"/>
			<point x="22" y="-135" type="curve"/>
		</contour>
		<contour>
			<point x="137" y="526" type="line"/>
			<point x="188" y="682" type="line"/>
			<point x="131" y="703" type="line"/>
			<point x="123" y="699" type="line"/>
			<point x="102" y="546" type="line"/>
		</contour>
	</outline>
</glyph>
<glyph name="k" format="2">
	<advance width="337"/>
	<unicode hex="006B"/>
	<anchor x="170" y="700" name="top"/>
	<anchor x="170" y="0" name="bottom"/>
	<outline>
		<contour>
			<point x="21" y="19" type="curve"/>
			<point x="21" y="-6" type="line"/>
			<point x="62" y="1"/>
			<point x="133" y="0"/>
			<point x="172" y="-6" type="curve"/>
			<point x="172" y="19" type="line"/>
			<point x="140" y="36"/>
			<point x="141" y="36"/>
			<point x="141" y="107" type="curve"/>
			<point x="141" y="159" type="line"/>
			<point x="190" y="109"/>
			<point x="237" y="63"/>
			<point x="304" y="-6" type="curve"/>
			<point x="316" y="-2" type="line"/>
			<point x="332" y="86" type="line"/>
			<point x="330" y="94" type="line"/>
			<point x="269" y="119"/>
			<point x="211" y="153"/>
			<point x="149" y="198" type="curve"/>
			<point x="208" y="236"/>
			<point x="254" y="267"/>
			<point x="316" y="297" type="curve"/>
			<point x="316" y="306" type="line"/>
			<point x="291" y="391" type="line"/>
			<point x="283" y="392" type="line"/>
			<point x="239" y="331"/>
			<point x="186" y="282"/>
			<point x="141" y="235" type="curve"/>
			<point x="140" y="417"/>
			<point x="142" y="627"/>
			<point x="160" y="699" type="curve"/>
			<point x="146" y="711" type="line"/>
			<point x="104" y="688"/>
			<point x="51" y="668"/>
			<point x="10" y="652" type="curve"/>
			<point x="11" y="629" type="line"/>
			<point x="54" y="622"/>
			<point x="58" y="608"/>
			<point x="58" y="564" type="curve"/>
			<point x="62" y="97" type="line" smooth="yes"/>
			<point x="63" y="35"/>
			<point x="66" y="35"/>
		</contour>
	</outline>
</glyph>
<glyph name="l" format="2">
	<advance width="231"/>
	<unicode hex="006C"/>
	<anchor x="113" y="350" name="center"/>
	<anchor x="113" y="700" name="top"/>
	<anchor x="211" y="700" name="topright"/>
	<anchor x="113" y="0" name="bottom"/>
	<outline>
		<contour>
			<point x="32" y="19" type="curve"/>
			<point x="32" y="-6" type="line"/>
			<point x="73" y="1"/>
			<point x="149" y="0"/>
			<point x="206" y="-6" type="curve"/>
			<point x="206" y="19" type="line"/>
			<point x="156" y="36"/>
			<point x="157" y="36"/>
			<point x="157" y="107" type="curve"/>
			<point x="157" y="303"/>
			<point x="144" y="659"/>
			<point x="174" y="696" type="curve"/>
			<point x="154" y="711" type="line"/>
			<point x="112" y="688"/>
			<point x="66" y="669"/>
			<point x="25" y="653" type="curve"/>
			<point x="27" y="628" type="line"/>
			<point x="70" y="631"/>
			<point x="73" y="630"/>
			<point x="73" y="579" type="curve"/>
			<point x="73" y="400" type="line"/>
			<point x="33" y="382" type="line"/>
			<point x="34" y="371" type="line"/>
			<point x="44" y="365"/>
			<point x="57" y="367"/>
			<point x="73" y="355" type="curve"/>
			<point x="73" y="97" type="line" smooth="yes"/>
			<point x="73" y="35"/>
			<point x="77" y="35"/>
		</contour>
	</outline>
</glyph>
<glyph name="m" format="2">
	<advance width="703"/>
	<unicode hex="006D"/>
	<anchor x="351" y="390" name="top"/>
	<anchor x="351" y="0" name="bottom"/>
	<outline>
		<contour>
			<point x="22" y="22" type="curve"/>
			<point x="22" y="-6" type="line"/>
			<point x="63" y="1"/>
			<point x="141" y="0"/>
			<point x="198" y="-6" type="curve"/>
			<point x="198" y="22" type="line"/>
			<point x="148" y="39"/>
			<point x="149" y="39"/>
			<point x="149" y="110" type="curve"/>
			<point x="148" y="211"/>
			<point x="147" y="269"/>
			<point x="149" y="314" type="curve"/>
			<point x="169" y="328"/>
			<point x="196" y="342"/>
			<point x="234" y="342" type="curve"/>
			<point x="272" y="342"/>
			<point x="313" y="323"/>
			<point x="312" y="276" type="curve"/>
			<point x="308" y="87" type="line" smooth="yes"/>
			<point x="307" y="37"/>
			<point x="307" y="38"/>
			<point x="266" y="20" type="curve"/>
			<point x="266" y="-6" type="line"/>
			<point x="331" y="1"/>
			<point x="367" y="1"/>
			<point x="442" y="-6" type="curve"/>
			<point x="442" y="20" type="line"/>
			<point x="401" y="35"/>
			<point x="398" y="38"/>
			<point x="396" y="87" type="curve"/>
			<point x="393" y="158"/>
			<point x="387" y="256"/>
			<point x="397" y="306" type="curve"/>
			<point x="417" y="324"/>
			<point x="443" y="342"/>
			<point x="480" y="342" type="curve"/>
			<point x="518" y="342"/>
			<point x="559" y="323"/>
			<point x="558" y="276" type="curve"/>
			<point x="554" y="87" type="line" smooth="yes"/>
			<point x="553" y="37"/>
			<point x="553" y="38"/>
			<point x="512" y="20" type="curve"/>
			<point x="512" y="-6" type="line"/>
			<point x="577" y="1"/>
			<point x="613" y="1"/>
			<point x="688" y="-6" type="curve"/>
			<point x="688" y="20" type="line"/>
			<point x="647" y="35"/>
			<point x="644" y="38"/>
			<point x="642" y="87" type="curve"/>
			<point x="639" y="159"/>
			<point x="634" y="258"/>
			<point x="643" y="308" type="curve"/>
			<point x="647" y="330"/>
			<point x="603" y="399"/>
			<point x="520" y="399" type="curve"/>
			<point x="463" y="399"/>
			<point x="424" y="370"/>
			<point x="386" y="340" type="curve"/>
			<point x="369" y="367"/>
			<point x="330" y="399"/>
			<point x="274" y="399" type="curve"/>
			<point x="223" y="399"/>
			<point x="186" y="375"/>
			<point x="152" y="348" type="curve"/>
			<point x="154" y="365"/>
			<point x="157" y="380"/>
			<point x="161" y="397" type="curve"/>
			<point x="141" y="408" type="line"/>
			<point x="98" y="385"/>
			<point x="55" y="378"/>
			<point x="15" y="368" type="curve"/>
			<point x="16" y="346" type="line"/>
			<point x="39" y="332"/>
			<point x="63" y="326"/>
			<point x="63" y="272" type="curve"/>
			<point x="63" y="100" type="line" smooth="yes"/>
			<point x="63" y="38"/>
			<point x="67" y="38"/>
		</contour>
	</outline>
</glyph>
<glyph name="n" format="2">
	<advance width="466"/>
	<unicode hex="006E"/>
	<anchor x="234" y="390" name="top"/>
	<anchor x="234" y="0" name="bottom"/>
	<outline>
		<contour>
			<point x="22" y="22" type="curve"/>
			<point x="22" y="-6" type="line"/>
			<point x="63" y="1"/>
			<point x="140" y="0"/>
			<point x="197" y="-6" type="curve"/>
			<point x="197" y="22" type="line"/>
			<point x="147" y="39"/>
			<point x="148" y="39"/>
			<point x="148" y="110" type="curve"/>
			<point x="147" y="205"/>
			<point x="146" y="261"/>
			<point x="148" y="305" type="curve"/>
			<point x="171" y="321"/>
			<point x="210" y="333"/>
			<point x="237" y="333" type="curve"/>
			<point x="285" y="333"/>
			<point x="323" y="316"/>
			<point x="321" y="249" type="curve"/>
			<point x="317" y="87" type="line" smooth="yes"/>
			<point x="316" y="37"/>
			<point x="316" y="38"/>
			<point x="275" y="20" type="curve"/>
			<point x="275" y="-6" type="line"/>
			<point x="340" y="1"/>
			<point x="376" y="1"/>
			<point x="451" y="-6" type="curve"/>
			<point x="451" y="20" type="line"/>
			<point x="410" y="35"/>
			<point x="407" y="38"/>
			<point x="405" y="87" type="curve"/>
			<point x="402" y="159"/>
			<point x="396" y="276"/>
			<point x="404" y="324" type="curve"/>
			<point x="408" y="346"/>
			<point x="366" y="399"/>
			<point x="303" y="399" type="curve"/>
			<point x="245" y="399"/>
			<point x="212" y="374"/>
			<point x="150" y="340" type="curve"/>
			<point x="152" y="359"/>
			<point x="155" y="377"/>
			<point x="160" y="397" type="curve"/>
			<point x="140" y="408" type="line"/>
			<point x="97" y="385"/>
			<point x="55" y="378"/>
			<point x="15" y="368" type="curve"/>
			<point x="16" y="346" type="line"/>
			<point x="39" y="332"/>
			<point x="63" y="326"/>
			<point x="63" y="272" type="curve"/>
			<point x="63" y="100" type="line" smooth="yes"/>
			<point x="63" y="38"/>
			<point x="67" y="38"/>
		</contour>
	</outline>
</glyph>
<glyph name="o" format="2">
	<advance width="435"/>
	<unicode hex="006F"/>
	<anchor x="216" y="0" name="bottom"/>
	<anchor x="389" y="10" name="ogonek"/>
	<anchor x="314" y="390" name="top"/>
	<anchor x="412" y="390" name="topright"/>
	<anchor x="216" y="195" name="center"/>
	<outline>
		<contour>
			<point x="227" y="-10" type="curve" smooth="yes"/>
			<point x="324" y="-10"/>
			<point x="415" y="88"/>
			<point x="415" y="198" type="curve" smooth="yes"/>
			<point x="415" y="333"/>
			<point x="318" y="400"/>
			<point x="218" y="400" type="curve" smooth="yes"/>
			<point x="111" y="400"/>
			<point x="20" y="311"/>
			<point x="20" y="192" type="curve" smooth="yes"/>
			<point x="20" y="57"/>
			<point x="129" y="-10"/>
		</contour>
		<contour>
			<point x="225" y="26" type="curve" smooth="yes"/>
			<point x="148" y="26"/>
			<point x="109" y="115"/>
			<point x="109" y="208" type="curve" smooth="yes"/>
			<point x="109" y="293"/>
			<point x="141" y="364"/>
			<point x="210" y="364" type="curve" smooth="yes"/>
			<point x="287" y="364"/>
			<point x="326" y="295"/>
			<point x="326" y="182" type="curve" smooth="yes"/>
			<point x="326" y="97"/>
			<point x="304" y="26"/>
		</contour>
	</outline>
</glyph>
<glyph name="p" format="2">
	<advance width="435"/>
	<unicode hex="0070"/>
	<anchor x="219" y="390" name="top"/>
	<anchor x="219" y="0" name="bottom"/>
	<outline>
		<contour>
			<point x="22" y="-205" type="line"/>
			<point x="63" y="-203"/>
			<point x="138" y="-204"/>
			<point x="225" y="-205" type="curve"/>
			<point x="225" y="-177" type="line"/>
			<point x="145" y="-173"/>
			<point x="146" y="-173"/>
			<point x="147" y="-102" type="curve" smooth="yes"/>
			<point x="147" y="-70"/>
			<point x="147" y="-29"/>
			<point x="146" y="17" type="curve"/>
			<point x="192" y="5"/>
			<point x="231" y="-5"/>
			<point x="241" y="-9" type="curve"/>
			<point x="308" y="-9"/>
			<point x="414" y="66"/>
			<point x="415" y="204" type="curve" smooth="yes"/>
			<point x="416" y="326"/>
			<point x="363" y="399"/>
			<point x="252" y="401" type="curve"/>
			<point x="228" y="393"/>
			<point x="181" y="351"/>
			<point x="148" y="326" type="curve"/>
			<point x="149" y="346"/>
			<point x="148" y="386"/>
			<point x="149" y="410" type="curve"/>
			<point x="133" y="415" type="line"/>
			<point x="104" y="399"/>
			<point x="51" y="382"/>
			<point x="15" y="368" type="curve"/>
			<point x="16" y="349" type="line"/>
			<point x="39" y="339"/>
			<point x="63" y="328"/>
			<point x="63" y="284" type="curve" smooth="yes"/>
			<point x="63" y="87" type="line"/>
			<point x="21" y="62" type="line"/>
			<point x="21" y="53" type="line"/>
			<point x="63" y="40" type="line"/>
			<point x="63" y="-112" type="line" smooth="yes"/>
			<point x="63" y="-174"/>
			<point x="67" y="-174"/>
			<point x="22" y="-177" type="curve"/>
		</contour>
		<contour>
			<point x="253" y="55" type="curve" smooth="yes"/>
			<point x="211" y="55"/>
			<point x="181" y="67"/>
			<point x="146" y="93" type="curve"/>
			<point x="145" y="160"/>
			<point x="145" y="231"/>
			<point x="147" y="291" type="curve"/>
			<point x="156" y="298"/>
			<point x="186" y="319"/>
			<point x="227" y="319" type="curve" smooth="yes"/>
			<point x="300" y="319"/>
			<point x="366" y="271"/>
			<point x="366" y="180" type="curve" smooth="yes"/>
			<point x="366" y="95"/>
			<point x="323" y="55"/>
		</contour>
	</outline>
</glyph>
<glyph name="r" format="2">
	<advance width="291"/>
	<unicode hex="0072"/>
	<anchor x="146" y="390" name="top"/>
	<anchor x="146" y="0" name="bottom"/>
	<outline>
		<contour>
			<point x="17" y="18" type="curve"/>
			<point x="17" y="-6" type="line"/>
			<point x="69" y="1"/>
			<point x="154" y="2"/>
			<point x="211" y="-6" type="curve"/>
			<point x="211" y="18" type="line"/>
			<point x="151" y="35"/>
			<point x="142" y="35"/>
			<point x="142" y="106" type="curve"/>
			<point x="142" y="251" type="line"/>
			<point x="162" y="272"/>
			<point x="195" y="306"/>
			<point x="212" y="306" type="curve"/>
			<point x="234" y="306"/>
			<point x="255" y="293"/>
			<point x="266" y="291" type="curve"/>
			<point x="277" y="311"/>
			<point x="292" y="355"/>
			<point x="301" y="378" type="curve"/>
			<point x="235" y="401" type="line"/>
			<point x="224" y="388"/>
			<point x="171" y="327"/>
			<point x="140" y="287" type="curve"/>
			<point x="138" y="324"/>
			<point x="137" y="363"/>
			<point x="135" y="407" type="curve"/>
			<point x="119" y="415" type="line"/>
			<point x="77" y="382"/>
			<point x="51" y="376"/>
			<point x="10" y="368" type="curve"/>
			<point x="11" y="349" type="line"/>
			<point x="34" y="335"/>
			<point x="58" y="338"/>
			<point x="58" y="294" type="curve"/>
			<point x="58" y="96" type="line" smooth="yes"/>
			<point x="58" y="34"/>
			<point x="62" y="34"/>
		</contour>
	</outline>
</glyph>
<glyph name="s" format="2">
	<advance width="356"/>
	<unicode hex="0073"/>
	<anchor x="178" y="390" name="top"/>
	<anchor x="178" y="0" name="bottom"/>
	<outline>
		<contour>
			<point x="40" y="-13" type="line"/>
			<point x="47" y="-4"/>
			<point x="58" y="14"/>
			<point x="76" y="14" type="curve" smooth="yes"/>
			<point x="106" y="14"/>
			<point x="141" y="-8"/>
			<point x="215" y="-8" type="curve" smooth="yes"/>
			<point x="278" y="-8"/>
			<point x="336" y="38"/>
			<point x="336" y="111" type="curve" smooth="yes"/>
			<point x="336" y="185"/>
			<point x="300" y="223"/>
			<point x="197" y="236" type="curve" smooth="yes"/>
			<point x="111" y="247"/>
			<point x="80" y="255"/>
			<point x="80" y="298" type="curve" smooth="yes"/>
			<point x="80" y="334"/>
			<point x="111" y="360"/>
			<point x="160" y="360" type="curve" smooth="yes"/>
			<point x="217" y="360"/>
			<point x="255" y="334"/>
			<point x="301" y="245" type="curve"/>
			<point x="319" y="252" type="line"/>
			<point x="304" y="303"/>
			<point x="302" y="354"/>
			<point x="334" y="409" type="curve"/>
			<point x="317" y="420" type="line"/>
			<point x="297" y="405"/>
			<point x="281" y="388"/>
			<point x="252" y="388" type="curve" smooth="yes"/>
			<point x="235" y="388"/>
			<point x="206" y="401"/>
			<point x="172" y="401" type="curve" smooth="yes"/>
			<point x="78" y="401"/>
			<point x="31" y="340"/>
			<point x="31" y="275" type="curve" smooth="yes"/>
			<point x="31" y="209"/>
			<point x="63" y="167"/>
			<point x="152" y="160" type="curve" smooth="yes"/>
			<point x="251" y="152"/>
			<point x="277" y="124"/>
			<point x="277" y="88" type="curve" smooth="yes"/>
			<point x="277" y="50"/>
			<point x="244" y="26"/>
			<point x="205" y="26" type="curve" smooth="yes"/>
			<point x="135" y="26"/>
			<point x="88" y="64"/>
			<point x="53" y="140" type="curve"/>
			<point x="33" y="137" type="line"/>
			<point x="39" y="105"/>
			<point x="34" y="33"/>
			<point x="20" y="-7" type="curve"/>
		</contour>
	</outline>
</glyph>
<glyph name="t" format="2">
	<advance width="231"/>
	<unicode hex="0074"/>
	<anchor x="117" y="0" name="bottom"/>
	<anchor x="117" y="390" name="top"/>
	<anchor x="226" y="390" name="topright"/>
	<anchor x="117" y="195" name="center"/>
	<outline>
		<contour>
			<point x="139" y="-9" type="curve"/>
			<point x="165" y="-1"/>
			<point x="202" y="20"/>
			<point x="222" y="32" type="curve"/>
			<point x="218" y="56" type="line"/>
			<point x="136" y="56"/>
			<point x="135" y="97"/>
			<point x="134" y="225" type="curve" smooth="yes"/>
			<point x="134" y="265"/>
			<point x="134" y="302"/>
			<point x="135" y="336" type="curve"/>
			<point x="225" y="336" type="line"/>
			<point x="226" y="390" type="line"/>
			<point x="137" y="390" type="line"/>
			<point x="140" y="442"/>
			<point x="146" y="488"/>
			<point x="155" y="535" type="curve"/>
			<point x="126" y="540" type="line"/>
			<point x="111" y="481"/>
			<point x="79" y="467"/>
			<point x="43" y="465" type="curve"/>
			<point x="40" y="444" type="line"/>
			<point x="49" y="437"/>
			<point x="54" y="415"/>
			<point x="55" y="390" type="curve"/>
			<point x="10" y="390" type="line"/>
			<point x="11" y="370" type="line"/>
			<point x="33" y="359"/>
			<point x="47" y="347"/>
			<point x="53" y="336" type="curve"/>
			<point x="54" y="336" type="line"/>
			<point x="49" y="59" type="line"/>
			<point x="60" y="27"/>
			<point x="89" y="1"/>
		</contour>
	</outline>
</glyph>
<glyph name="u" format="2">
	<advance width="430"/>
	<unicode hex="0075"/>
	<anchor x="440" y="10" name="ogonek"/>
	<anchor x="229" y="390" name="top"/>
	<anchor x="473" y="390" name="topright"/>
	<outline>
		<contour>
			<point x="295" y="-1" type="curve"/>
			<point x="308" y="-11" type="line"/>
			<point x="347" y="4"/>
			<point x="380" y="14"/>
			<point x="420" y="24" type="curve"/>
			<point x="419" y="46" type="line"/>
			<point x="396" y="60"/>
			<point x="373" y="66"/>
			<point x="372" y="120" type="curve"/>
			<point x="371" y="212"/>
			<point x="373" y="305"/>
			<point x="380" y="397" type="curve"/>
			<point x="335" y="393"/>
			<point x="296" y="392"/>
			<point x="239" y="398" type="curve"/>
			<point x="239" y="370" type="line"/>
			<point x="289" y="353"/>
			<point x="288" y="353"/>
			<point x="288" y="282" type="curve"/>
			<point x="288" y="189"/>
			<point x="290" y="133"/>
			<point x="288" y="89" type="curve"/>
			<point x="264" y="76"/>
			<point x="232" y="66"/>
			<point x="209" y="66" type="curve"/>
			<point x="161" y="66"/>
			<point x="125" y="86"/>
			<point x="125" y="153" type="curve"/>
			<point x="126" y="305" type="line" smooth="yes"/>
			<point x="126" y="355"/>
			<point x="127" y="354"/>
			<point x="145" y="372" type="curve"/>
			<point x="145" y="398" type="line"/>
			<point x="112" y="394"/>
			<point x="61" y="391"/>
			<point x="10" y="398" type="curve"/>
			<point x="10" y="372" type="line"/>
			<point x="37" y="357"/>
			<point x="39" y="354"/>
			<point x="41" y="305" type="curve"/>
			<point x="44" y="233"/>
			<point x="42" y="118"/>
			<point x="42" y="70" type="curve"/>
			<point x="53" y="39"/>
			<point x="122" y="-8"/>
			<point x="175" y="-8" type="curve"/>
			<point x="218" y="21"/>
			<point x="246" y="37"/>
			<point x="288" y="53" type="curve"/>
			<point x="290" y="36"/>
			<point x="293" y="18"/>
		</contour>
	</outline>
</glyph>
<glyph name="v" format="2">
	<advance width="438"/>
	<unicode hex="0076"/>
	<anchor x="219" y="390" name="top"/>
	<anchor x="219" y="0" name="bottom"/>
	<outline>
		<contour>
			<point x="203" y="-10" type="curve"/>
			<point x="203" y="-10" type="line"/>
			<point x="227" y="-10" type="line"/>
			<point x="235" y="30"/>
			<point x="413" y="364"/>
			<point x="433" y="375" type="curve"/>
			<point x="433" y="400" type="line"/>
			<point x="374" y="397"/>
			<point x="320" y="397"/>
			<point x="281" y="400" type="curve"/>
			<point x="281" y="376" type="line"/>
			<point x="328" y="351"/>
			<point x="345" y="331"/>
			<point x="323" y="279" type="curve"/>
			<point x="298" y="220"/>
			<point x="271" y="161"/>
			<point x="239" y="105" type="curve"/>
			<point x="152" y="302" type="line" smooth="yes"/>
			<point x="134" y="344"/>
			<point x="141" y="358"/>
			<point x="185" y="375" type="curve"/>
			<point x="185" y="399" type="line"/>
			<point x="128" y="397"/>
			<point x="72" y="396"/>
			<point x="5" y="399" type="curve"/>
			<point x="5" y="374" type="line"/>
			<point x="34" y="350"/>
			<point x="176" y="54"/>
		</contour>
	</outline>
</glyph>
<glyph name="w" format="2">
	<advance width="631"/>
	<unicode hex="0077"/>
	<anchor x="316" y="390" name="top"/>
	<anchor x="316" y="0" name="bottom"/>
	<outline>
		<contour>
			<point x="193" y="-10" type="curve"/>
			<point x="216" y="-10" type="line"/>
			<point x="220" y="10"/>
			<point x="265" y="105"/>
			<point x="311" y="195" type="curve"/>
			<point x="341" y="148"/>
			<point x="386" y="43"/>
			<point x="408" y="-10" type="curve"/>
			<point x="430" y="-10" type="line"/>
			<point x="438" y="30"/>
			<point x="607" y="364"/>
			<point x="626" y="375" type="curve"/>
			<point x="626" y="400" type="line"/>
			<point x="570" y="397"/>
			<point x="514" y="397"/>
			<point x="477" y="400" type="curve"/>
			<point x="477" y="376" type="line"/>
			<point x="521" y="351"/>
			<point x="540" y="331"/>
			<point x="518" y="279" type="curve" smooth="yes"/>
			<point x="493" y="219"/>
			<point x="470" y="158"/>
			<point x="439" y="100" type="curve"/>
			<point x="355" y="280" type="line"/>
			<point x="383" y="332"/>
			<point x="406" y="371"/>
			<point x="412" y="375" type="curve"/>
			<point x="412" y="400" type="line"/>
			<point x="356" y="397"/>
			<point x="300" y="397"/>
			<point x="263" y="400" type="curve"/>
			<point x="263" y="376" type="line"/>
			<point x="308" y="351"/>
			<point x="325" y="331"/>
			<point x="304" y="279" type="curve" smooth="yes"/>
			<point x="279" y="219"/>
			<point x="256" y="160"/>
			<point x="226" y="103" type="curve"/>
			<point x="140" y="302" type="line" smooth="yes"/>
			<point x="122" y="344"/>
			<point x="130" y="358"/>
			<point x="172" y="375" type="curve"/>
			<point x="172" y="399" type="line"/>
			<point x="117" y="397"/>
			<point x="69" y="396"/>
			<point x="5" y="399" type="curve"/>
			<point x="5" y="374" type="line"/>
			<point x="33" y="350"/>
			<point x="167" y="54"/>
		</contour>
	</outline>
</glyph>
<glyph name="x" format="2">
	<advance width="396"/>
	<unicode hex="0078"/>
	<anchor x="198" y="390" name="top"/>
	<anchor x="198" y="0" name="bottom"/>
	<outline>
		<contour>
			<point x="220" y="-5" type="line"/>
			<point x="274" y="-1"/>
			<point x="331" y="-2"/>
			<point x="391" y="-5" type="curve"/>
			<point x="391" y="19" type="line"/>
			<point x="336" y="80"/>
			<point x="301" y="125"/>
			<point x="240" y="215" type="curve" smooth="yes"/>
			<point x="237" y="220" type="line"/>
			<point x="293" y="268"/>
			<point x="353" y="325"/>
			<point x="386" y="376" type="curve"/>
			<point x="386" y="400" type="line"/>
			<point x="340" y="398"/>
			<point x="296" y="398"/>
			<point x="252" y="400" type="curve"/>
			<point x="252" y="376" type="line"/>
			<point x="325" y="329"/>
			<point x="272" y="290"/>
			<point x="218" y="248" type="curve"/>
			<point x="160" y="334"/>
			<point x="151" y="361"/>
			<point x="178" y="376" type="curve"/>
			<point x="178" y="400" type="line"/>
			<point x="121" y="397"/>
			<point x="72" y="396"/>
			<point x="11" y="400" type="curve"/>
			<point x="12" y="372" type="line"/>
			<point x="52" y="360"/>
			<point x="107" y="273"/>
			<point x="150" y="209" type="curve"/>
			<point x="78" y="160"/>
			<point x="9" y="84"/>
			<point x="5" y="-2" type="curve"/>
			<point x="45" y="0"/>
			<point x="96" y="1"/>
			<point x="146" y="-2" type="curve"/>
			<point x="146" y="23" type="line"/>
			<point x="66" y="49"/>
			<point x="92" y="131"/>
			<point x="169" y="181" type="curve"/>
			<point x="249" y="64"/>
			<point x="263" y="51"/>
			<point x="220" y="19" type="curve"/>
		</contour>
	</outline>
</glyph>
<glyph name="y" format="2">
	<advance width="388"/>
	<unicode hex="0079"/>
	<anchor x="184" y="390" name="top"/>
	<anchor x="184" y="0" name="bottom"/>
	<outline>
		<contour>
			<point x="84" y="-80" type="curve"/>
			<point x="84" y="-199" type="line"/>
			<point x="114" y="-199" type="line"/>
			<point x="118" y="-117"/>
			<point x="185" y="-17"/>
			<point x="235" y="77" type="curve"/>
			<point x="310" y="219"/>
			<point x="351" y="308"/>
			<point x="393" y="375" type="curve"/>
			<point x="393" y="400" type="line"/>
			<point x="334" y="397"/>
			<point x="280" y="397"/>
			<point x="241" y="400" type="curve"/>
			<point x="241" y="376" type="line"/>
			<point x="288" y="351"/>
			<point x="305" y="331"/>
			<point x="288" y="279" type="curve"/>
			<point x="274" y="235"/>
			<point x="241" y="165"/>
			<point x="205" y="97" type="curve"/>
			<point x="132" y="302" type="line" smooth="yes"/>
			<point x="116" y="346"/>
			<point x="121" y="358"/>
			<point x="165" y="375" type="curve"/>
			<point x="165" y="399" type="line"/>
			<point x="108" y="397"/>
			<point x="62" y="396"/>
			<point x="-5" y="399" type="curve"/>
			<point x="-5" y="374" type="line"/>
			<point x="20" y="352"/>
			<point x="119" y="118"/>
			<point x="161" y="20" type="curve"/>
			<point x="132" y="-26"/>
			<point x="105" y="-64"/>
		</contour>
	</outline>
</glyph>
<glyph name="z" format="2">
	<advance width="356"/>
	<unicode hex="007A"/>
	<anchor x="184" y="390" name="top"/>
	<anchor x="184" y="0" name="bottom"/>
	<outline>
		<contour>
			<point x="42" y="-3" type="line"/>
			<point x="152" y="4"/>
			<point x="229" y="0"/>
			<point x="339" y="0" type="curve"/>
			<point x="341" y="117" type="line"/>
			<point x="316" y="117" type="line"/>
			<point x="283" y="41"/>
			<point x="249" y="45"/>
			<point x="212" y="43" type="curve" smooth="yes"/>
			<point x="143" y="40" type="line"/>
			<point x="200" y="152"/>
			<point x="263" y="280"/>
			<point x="320" y="372" type="curve"/>
			<point x="315" y="390" type="line"/>
			<point x="241" y="391"/>
			<point x="127" y="387"/>
			<point x="15" y="390" type="curve"/>
			<point x="15" y="279" type="line"/>
			<point x="42" y="279" type="line"/>
			<point x="57" y="325"/>
			<point x="72" y="348"/>
			<point x="113" y="350" type="curve" smooth="yes"/>
			<point x="215" y="355" type="line"/>
			<point x="33" y="17" type="line"/>
		</contour>
	</outline>
</glyph>
<glyph name="a_macr" format="2">
	<advance width="338"/>
	<unicode hex="0101"/>
	<anchor x="293" y="10" name="ogonek"/>
	<anchor x="159" y="390" name="top"/>
	<anchor x="158" y="390" name="_top"/>
	<anchor x="159" y="0" name="bottom"/>
	<outline>
		<contour>
			<point x="212" y="-7" type="line"/>
			<point x="221" y="-11" type="line"/>
			<point x="328" y="29" type="line"/>
			<point x="319" y="60" type="line"/>
			<point x="297" y="50"/>
			<point x="276" y="50"/>
			<point x="276" y="93" type="curve"/>
			<point x="276" y="172"/>
			<point x="278" y="281"/>
			<point x="278" y="330" type="curve"/>
			<point x="278" y="349"/>
			<point x="203" y="400"/>
			<point x="177" y="400" type="curve"/>
			<point x="165" y="400"/>
			<point x="86" y="367"/>
			<point x="37" y="347" type="curve"/>
			<point x="48" y="313" type="line"/>
			<point x="82" y="329"/>
			<point x="103" y="338"/>
			<point x="124" y="338" type="curve"/>
			<point x="156" y="338"/>
			<point x="192" y="318"/>
			<point x="192" y="282" type="curve"/>
			<point x="191" y="236" type="line"/>
			<point x="142" y="229"/>
			<point x="82" y="216"/>
			<point x="68" y="205" type="curve"/>
			<point x="46" y="177"/>
			<point x="25" y="138"/>
			<point x="25" y="92" type="curve"/>
			<point x="25" y="25"/>
			<point x="55" y="-9"/>
			<point x="112" y="-9" type="curve"/>
			<point x="154" y="11"/>
			<point x="178" y="39"/>
			<point x="194" y="76" type="curve"/>
		</contour>
		<contour>
			<point x="117" y="79" type="curve"/>
			<point x="117" y="79" type="line"/>
			<point x="95" y="79"/>
			<point x="66" y="96"/>
			<point x="66" y="130" type="curve"/>
			<point x="66" y="179"/>
			<point x="112" y="192"/>
			<point x="192" y="198" type="curve"/>
			<point x="201" y="101"/>
			<point x="152" y="79"/>
		</contour>
		<contour>
			<point x="267" y="483" type="curve"/>
			<point x="267" y="483" type="line"/>
			<point x="288" y="533" type="line"/>
			<point x="156" y="549"/>
			<point x="103" y="566"/>
			<point x="90" y="591" type="curve"/>
			<point x="71" y="590" type="line"/>
			<point x="66" y="564"/>
			<point x="58" y="537"/>
			<point x="49" y="511" type="curve"/>
			<point x="116" y="506"/>
			<point x="212" y="493"/>
		</contour>
	</outline>
</glyph>
<glyph name="e_macr" format="2">
	<advance width="305"/>
	<unicode hex="0113"/>
	<anchor x="275" y="10" name="ogonek"/>
	<anchor x="155" y="390" name="top"/>
	<anchor x="159" y="390" name="_top"/>
	<anchor x="155" y="0" name="bottom"/>
	<outline>
		<contour>
			<point x="218" y="-10" type="curve"/>
			<point x="218" y="-10" type="line"/>
			<point x="254" y="10"/>
			<point x="260" y="24"/>
			<point x="295" y="41" type="curve"/>
			<point x="287" y="68" type="line"/>
			<point x="270" y="63"/>
			<point x="258" y="57"/>
			<point x="229" y="57" type="curve"/>
			<point x="168" y="57"/>
			<point x="131" y="89"/>
			<point x="114" y="141" type="curve"/>
			<point x="184" y="190"/>
			<point x="236" y="214"/>
			<point x="296" y="254" type="curve"/>
			<point x="300" y="271" type="line"/>
			<point x="263" y="312"/>
			<point x="221" y="375"/>
			<point x="180" y="403" type="curve"/>
			<point x="44" y="331" type="line"/>
			<point x="34" y="294"/>
			<point x="29" y="226"/>
			<point x="29" y="169" type="curve"/>
			<point x="29" y="60"/>
			<point x="105" y="-10"/>
		</contour>
		<contour>
			<point x="107" y="172" type="curve"/>
			<point x="107" y="172" type="line"/>
			<point x="105" y="185"/>
			<point x="104" y="199"/>
			<point x="104" y="213" type="curve"/>
			<point x="104" y="268"/>
			<point x="113" y="321"/>
			<point x="133" y="342" type="curve"/>
			<point x="183" y="300"/>
			<point x="216" y="255"/>
			<point x="216" y="240" type="curve"/>
			<point x="187" y="216"/>
			<point x="152" y="199"/>
		</contour>
		<contour>
			<point x="25" y="467" type="line"/>
			<point x="53" y="462" type="line"/>
			<point x="68" y="485"/>
			<point x="199" y="485"/>
			<point x="246" y="481" type="curve"/>
			<point x="283" y="559" type="line"/>
			<point x="257" y="563" type="line"/>
			<point x="233" y="542"/>
			<point x="122" y="541"/>
			<point x="68" y="539" type="curve"/>
		</contour>
	</outline>
</glyph>
<glyph name="i_macr" format="2">
	<advance width="203"/>
	<unicode hex="012B"/>
	<anchor x="100" y="720" name="top"/>
	<anchor x="110" y="0" name="bottom"/>
	<anchor x="99" y="420" name="_top"/>
	<outline>
		<contour>
			<point x="21" y="-6" type="line"/>
			<point x="62" y="1"/>
			<point x="138" y="0"/>
			<point x="195" y="-6" type="curve"/>
			<point x="195" y="18" type="line"/>
			<point x="145" y="35"/>
			<point x="145" y="35"/>
			<point x="146" y="106" type="curve" smooth="yes"/>
			<point x="148" y="236"/>
			<point x="140" y="297"/>
			<point x="157" y="408" type="curve"/>
			<point x="137" y="419" type="line"/>
			<point x="95" y="386"/>
			<point x="55" y="376"/>
			<point x="14" y="368" type="curve"/>
			<point x="15" y="349" type="line"/>
			<point x="38" y="335"/>
			<point x="62" y="338"/>
			<point x="62" y="294" type="curve" smooth="yes"/>
			<point x="62" y="96" type="line" smooth="yes"/>
			<point x="62" y="34"/>
			<point x="66" y="34"/>
			<point x="21" y="18" type="curve"/>
		</contour>
		<contour>
			<point x="22" y="515" type="line"/>
			<point x="34" y="534"/>
			<point x="127" y="527"/>
			<point x="163" y="527" type="curve"/>
			<point x="203" y="594" type="line"/>
			<point x="183" y="599" type="line"/>
			<point x="154" y="589"/>
			<point x="91" y="592"/>
			<point x="49" y="592" type="curve"/>
			<point x="0" y="521" type="line"/>
		</contour>
	</outline>
</glyph>
<glyph name="u_macr" format="2">
	<advance width="430"/>
	<unicode hex="016B"/>
	<anchor x="387" y="10" name="ogonek"/>
	<anchor x="215" y="390" name="top"/>
	<anchor x="410" y="390" name="topright"/>
	<anchor x="202" y="390" name="_top"/>
	<anchor x="215" y="0" name="bottom"/>
	<outline>
		<contour>
			<point x="295" y="-1" type="curve"/>
			<point x="308" y="-11" type="line"/>
			<point x="347" y="4"/>
			<point x="380" y="14"/>
			<point x="420" y="24" type="curve"/>
			<point x="419" y="46" type="line"/>
			<point x="396" y="60"/>
			<point x="373" y="66"/>
			<point x="372" y="120" type="curve"/>
			<point x="371" y="212"/>
			<point x="373" y="305"/>
			<point x="380" y="397" type="curve"/>
			<point x="335" y="393"/>
			<point x="296" y="392"/>
			<point x="239" y="398" type="curve"/>
			<point x="239" y="370" type="line"/>
			<point x="289" y="353"/>
			<point x="288" y="353"/>
			<point x="288" y="282" type="curve"/>
			<point x="288" y="189"/>
			<point x="290" y="133"/>
			<point x="288" y="89" type="curve"/>
			<point x="264" y="76"/>
			<point x="232" y="66"/>
			<point x="209" y="66" type="curve"/>
			<point x="161" y="66"/>
			<point x="125" y="86"/>
			<point x="125" y="153" type="curve"/>
			<point x="126" y="305" type="line" smooth="yes"/>
			<point x="126" y="355"/>
			<point x="127" y="354"/>
			<point x="145" y="372" type="curve"/>
			<point x="145" y="398" type="line"/>
			<point x="112" y="394"/>
			<point x="61" y="391"/>
			<point x="10" y="398" type="curve"/>
			<point x="10" y="372" type="line"/>
			<point x="37" y="357"/>
			<point x="39" y="354"/>
			<point x="41" y="305" type="curve"/>
			<point x="44" y="233"/>
			<point x="42" y="118"/>
			<point x="42" y="70" type="curve"/>
			<point x="53" y="39"/>
			<point x="122" y="-8"/>
			<point x="175" y="-8" type="curve"/>
			<point x="218" y="21"/>
			<point x="246" y="37"/>
			<point x="288" y="53" type="curve"/>
			<point x="290" y="36"/>
			<point x="293" y="18"/>
		</contour>
		<contour>
			<point x="75" y="491" type="line"/>
			<point x="103" y="485" type="line"/>
			<point x="119" y="508"/>
			<point x="269" y="497"/>
			<point x="316" y="497" type="curve"/>
			<point x="376" y="572" type="line"/>
			<point x="351" y="577" type="line"/>
			<point x="313" y="555"/>
			<point x="174" y="559"/>
			<point x="120" y="559" type="curve"/>
		</contour>
	</outline>
</glyph>
<glyph name="longs" format="2">
	<advance width="267"/>
	<unicode hex="017F"/>
	<anchor x="135" y="0" name="bottom"/>
	<outline>
		<contour>
			<point x="25" y="21" type="curve"/>
			<point x="25" y="-6" type="line"/>
			<point x="73" y="1"/>
			<point x="145" y="0"/>
			<point x="202" y="-6" type="curve"/>
			<point x="202" y="21" type="line"/>
			<point x="152" y="38"/>
			<point x="153" y="38"/>
			<point x="153" y="109" type="curve"/>
			<point x="152" y="627" type="line"/>
			<point x="175" y="627"/>
			<point x="207" y="619"/>
			<point x="247" y="598" type="curve"/>
			<point x="307" y="660" type="line"/>
			<point x="307" y="670" type="line"/>
			<point x="282" y="683"/>
			<point x="228" y="695"/>
			<point x="190" y="711" type="curve"/>
			<point x="147" y="672"/>
			<point x="108" y="634"/>
			<point x="67" y="598" type="curve"/>
			<point x="67" y="407" type="line"/>
			<point x="36" y="384" type="line"/>
			<point x="36" y="371" type="line"/>
			<point x="68" y="351" type="line"/>
			<point x="68" y="108" type="line" smooth="yes"/>
			<point x="68" y="37"/>
			<point x="67" y="37"/>
		</contour>
	</outline>
</glyph>
<glyph name="con" format="2">
	<advance width="371"/>
	<unicode hex="A76F"/>
	<outline>
		<contour>
			<point x="180" y="-8" type="curve" smooth="yes"/>
			<point x="274" y="-8"/>
			<point x="351" y="71"/>
			<point x="351" y="186" type="curve" smooth="yes"/>
			<point x="351" y="321"/>
			<point x="243" y="403"/>
			<point x="161" y="403" type="curve" smooth="yes"/>
			<point x="109" y="403"/>
			<point x="47" y="362"/>
			<point x="5" y="321" type="curve"/>
			<point x="74" y="257" type="line"/>
			<point x="88" y="257" type="line"/>
			<point x="98" y="293"/>
			<point x="118" y="356"/>
			<point x="159" y="356" type="curve" smooth="yes"/>
			<point x="232" y="356"/>
			<point x="267" y="256"/>
			<point x="267" y="194" type="curve" smooth="yes"/>
			<point x="267" y="102"/>
			<point x="225" y="39"/>
			<point x="183" y="39" type="curve" smooth="yes"/>
			<point x="132" y="39"/>
			<point x="117" y="65"/>
			<point x="86" y="102" type="curve"/>
			<point x="24" y="69" type="line"/>
			<point x="67" y="16"/>
			<point x="116" y="-8"/>
		</contour>
	</outline>
</glyph>
<glyph name="Q_strok" format="2">
	<advance width="962"/>
	<anchor x="371" y="350" name="center"/>
	<anchor x="667" y="10" name="ogonek"/>
	<anchor x="371" y="700" name="top"/>
	<anchor x="721" y="700" name="topright"/>
	<anchor x="20" y="700" name="topleft"/>
	<anchor x="371" y="0" name="bottom"/>
	<outline>
		<contour>
			<point x="665" y="-9" type="curve"/>
			<point x="702" y="-13" type="line"/>
			<point x="722" y="10"/>
			<point x="740" y="32"/>
			<point x="756" y="53" type="curve"/>
			<point x="823" y="50"/>
			<point x="831" y="-9"/>
			<point x="896" y="-9" type="curve"/>
			<point x="928" y="-9"/>
			<point x="952" y="27"/>
			<point x="958" y="50" type="curve"/>
			<point x="941" y="56" type="line"/>
			<point x="922" y="26"/>
			<point x="899" y="21"/>
			<point x="899" y="46" type="curve"/>
			<point x="899" y="79"/>
			<point x="899" y="125"/>
			<point x="825" y="125" type="curve"/>
			<point x="820" y="125"/>
			<point x="814" y="125"/>
			<point x="809" y="124" type="curve"/>
			<point x="864" y="203"/>
			<point x="905" y="277"/>
			<point x="962" y="367" type="curve"/>
			<point x="890" y="428" type="line"/>
			<point x="808" y="382" type="line"/>
			<point x="825" y="361" type="line"/>
			<point x="851" y="371"/>
			<point x="871" y="373"/>
			<point x="897" y="363" type="curve"/>
			<point x="878" y="297"/>
			<point x="834" y="206"/>
			<point x="766" y="113" type="curve"/>
			<point x="714" y="94"/>
			<point x="654" y="59"/>
			<point x="565" y="49" type="curve"/>
			<point x="663" y="114"/>
			<point x="726" y="226"/>
			<point x="726" y="351" type="curve"/>
			<point x="726" y="552"/>
			<point x="569" y="712"/>
			<point x="369" y="712" type="curve"/>
			<point x="171" y="712"/>
			<point x="15" y="552"/>
			<point x="15" y="351" type="curve"/>
			<point x="15" y="154"/>
			<point x="171" y="-10"/>
			<point x="369" y="-10" type="curve"/>
			<point x="376" y="-10"/>
			<point x="383" y="-10"/>
			<point x="391" y="-9" type="curve"/>
			<point x="389" y="-10" type="line"/>
			<point x="541" y="-10"/>
			<point x="629" y="40"/>
			<point x="718" y="51" type="curve"/>
			<point x="701" y="31"/>
			<point x="684" y="11"/>
		</contour>
		<contour>
			<point x="388" y="-10" type="move"/>
		</contour>
		<contour>
			<point x="369" y="35" type="curve"/>
			<point x="369" y="35" type="line"/>
			<point x="219" y="35"/>
			<point x="125" y="165"/>
			<point x="125" y="351" type="curve"/>
			<point x="125" y="532"/>
			<point x="210" y="667"/>
			<point x="369" y="667" type="curve"/>
			<point x="514" y="667"/>
			<point x="616" y="530"/>
			<point x="616" y="351" type="curve"/>
			<point x="616" y="179"/>
			<point x="526" y="35"/>
		</contour>
	</outline>
</glyph>
<glyph name="c_t" format="2">
	<advance width="567"/>
	<anchor x="418" y="195" name="center"/>
	<anchor x="151" y="390" name="top"/>
	<anchor x="527" y="390" name="topright"/>
	<anchor x="151" y="0" name="bottom"/>
	<outline>
		<contour>
			<point x="470" y="-9" type="curve"/>
			<point x="470" y="-9" type="line"/>
			<point x="496" y="-9"/>
			<point x="512" y="5"/>
			<point x="562" y="32" type="curve"/>
			<point x="558" y="50" type="line"/>
			<point x="456" y="50"/>
			<point x="456" y="97"/>
			<point x="455" y="225" type="curve"/>
			<point x="455" y="263"/>
			<point x="456" y="291"/>
			<point x="459" y="327" type="curve"/>
			<point x="488" y="328"/>
			<point x="527" y="330"/>
			<point x="556" y="327" type="curve"/>
			<point x="557" y="390" type="line"/>
			<point x="464" y="390" type="line"/>
			<point x="472" y="451"/>
			<point x="483" y="503"/>
			<point x="496" y="535" type="curve"/>
			<point x="474" y="545" type="line"/>
			<point x="453" y="518"/>
			<point x="397" y="475"/>
			<point x="351" y="465" type="curve"/>
			<point x="348" y="444" type="line"/>
			<point x="365" y="435"/>
			<point x="371" y="414"/>
			<point x="373" y="390" type="curve"/>
			<point x="340" y="389"/>
			<point x="225" y="391"/>
			<point x="177" y="395" type="curve"/>
			<point x="75" y="338" type="line"/>
			<point x="55" y="309"/>
			<point x="35" y="266"/>
			<point x="35" y="191" type="curve"/>
			<point x="35" y="76"/>
			<point x="70" y="-8"/>
			<point x="170" y="-8" type="curve"/>
			<point x="217" y="-8"/>
			<point x="254" y="9"/>
			<point x="288" y="26" type="curve"/>
			<point x="283" y="49" type="line"/>
			<point x="181" y="20"/>
			<point x="110" y="83"/>
			<point x="110" y="205" type="curve"/>
			<point x="110" y="249"/>
			<point x="122" y="298"/>
			<point x="158" y="331" type="curve"/>
			<point x="213" y="334"/>
			<point x="310" y="331"/>
			<point x="372" y="323" type="curve"/>
			<point x="367" y="59" type="line" smooth="yes"/>
			<point x="367" y="37"/>
			<point x="420" y="-9"/>
		</contour>
	</outline>
</glyph>
<glyph name="d.ss01" format="2">
	<advance width="401"/>
	<anchor x="191" y="-3" name="bottom"/>
	<anchor x="188" y="700" name="top"/>
	<anchor x="354" y="390" name="topright"/>
	<anchor x="188" y="195" name="center"/>
	<outline>
		<contour>
			<point x="202" y="-8" type="curve"/>
			<point x="232" y="15"/>
			<point x="323" y="76"/>
			<point x="360" y="106" type="curve"/>
			<point x="380" y="139"/>
			<point x="389" y="278"/>
			<point x="372" y="333" type="curve"/>
			<point x="354" y="364"/>
			<point x="309" y="405"/>
			<point x="264" y="435" type="curve" smooth="yes"/>
			<point x="199" y="478"/>
			<point x="117" y="534"/>
			<point x="117" y="551" type="curve" smooth="yes"/>
			<point x="117" y="564"/>
			<point x="131" y="583"/>
			<point x="156" y="605" type="curve"/>
			<point x="139" y="624" type="line"/>
			<point x="92" y="588"/>
			<point x="20" y="531"/>
			<point x="20" y="522" type="curve" smooth="yes"/>
			<point x="20" y="480"/>
			<point x="98" y="437"/>
			<point x="165" y="395" type="curve"/>
			<point x="43" y="298" type="line"/>
			<point x="29" y="270"/>
			<point x="34" y="170"/>
			<point x="52" y="111" type="curve" smooth="yes"/>
			<point x="65" y="69"/>
			<point x="124" y="7"/>
		</contour>
		<contour>
			<point x="238" y="70" type="curve"/>
			<point x="162" y="95"/>
			<point x="119" y="163"/>
			<point x="119" y="227" type="curve" smooth="yes"/>
			<point x="119" y="296"/>
			<point x="144" y="344"/>
			<point x="192" y="377" type="curve"/>
			<point x="201" y="371"/>
			<point x="210" y="364"/>
			<point x="218" y="358" type="curve" smooth="yes"/>
			<point x="262" y="323"/>
			<point x="294" y="276"/>
			<point x="294" y="213" type="curve" smooth="yes"/>
			<point x="294" y="146"/>
			<point x="266" y="101"/>
		</contour>
	</outline>
</glyph>
<glyph name="etfin" format="2">
	<advance width="327"/>
	<anchor x="257" y="385" name="top"/>
	<anchor x="257" y="-5" name="bottom"/>
	<outline>
		<contour>
			<point x="61" y="-208" type="curve"/>
			<point x="61" y="-208" type="line"/>
			<point x="65" y="-200" type="line"/>
			<point x="56" y="-195"/>
			<point x="48" y="-183"/>
			<point x="48" y="-169" type="curve"/>
			<point x="48" y="-154"/>
			<point x="56" y="-144"/>
			<point x="86" y="-129" type="curve"/>
			<point x="187" y="-79"/>
			<point x="296" y="-27"/>
			<point x="296" y="58" type="curve"/>
			<point x="296" y="112"/>
			<point x="245" y="166"/>
			<point x="158" y="183" type="curve"/>
			<point x="211" y="240"/>
			<point x="252" y="265"/>
			<point x="302" y="322" type="curve"/>
			<point x="292" y="344" type="line"/>
			<point x="227" y="348"/>
			<point x="162" y="387"/>
			<point x="119" y="403" type="curve"/>
			<point x="5" y="320" type="line"/>
			<point x="19" y="303" type="line"/>
			<point x="71" y="330"/>
			<point x="125" y="300"/>
			<point x="197" y="280" type="curve"/>
			<point x="154" y="212"/>
			<point x="78" y="168"/>
			<point x="11" y="116" type="curve"/>
			<point x="26" y="90" type="line"/>
			<point x="130" y="150"/>
			<point x="217" y="89"/>
			<point x="217" y="31" type="curve"/>
			<point x="217" y="-17"/>
			<point x="179" y="-58"/>
			<point x="56" y="-116" type="curve"/>
			<point x="35" y="-126"/>
			<point x="15" y="-147"/>
			<point x="15" y="-169" type="curve"/>
			<point x="15" y="-195"/>
			<point x="39" y="-208"/>
		</contour>
	</outline>
</glyph>
<glyph name="f_l" format="2">
	<advance width="514"/>
	<anchor x="257" y="0" name="caret_1"/>
	<anchor x="129" y="0" name="bottom_1"/>
	<anchor x="129" y="700" name="top_1"/>
	<anchor x="386" y="700" name="top_2"/>
	<anchor x="386" y="0" name="bottom_2"/>
	<outline>
		<contour>
			<point x="5" y="-6" type="line"/>
			<point x="73" y="1"/>
			<point x="145" y="0"/>
			<point x="222" y="-6" type="curve"/>
			<point x="222" y="21" type="line"/>
			<point x="152" y="38"/>
			<point x="153" y="38"/>
			<point x="153" y="109" type="curve" smooth="yes"/>
			<point x="152" y="346" type="line"/>
			<point x="262" y="346" type="line"/>
			<point x="262" y="390" type="line"/>
			<point x="152" y="390" type="line"/>
			<point x="151" y="592" type="line"/>
			<point x="272" y="581" type="line"/>
			<point x="282" y="653" type="line"/>
			<point x="271" y="657" type="line"/>
			<point x="231" y="639"/>
			<point x="112" y="634"/>
			<point x="74" y="639" type="curve"/>
			<point x="64" y="631" type="line"/>
			<point x="68" y="603"/>
			<point x="68" y="503"/>
			<point x="68" y="390" type="curve"/>
			<point x="16" y="390" type="line"/>
			<point x="16" y="368" type="line"/>
			<point x="68" y="349" type="line"/>
			<point x="68" y="108" type="line" smooth="yes"/>
			<point x="69" y="37"/>
			<point x="67" y="37"/>
			<point x="5" y="21" type="curve"/>
		</contour>
		<contour>
			<point x="315" y="-6" type="line"/>
			<point x="356" y="1"/>
			<point x="432" y="0"/>
			<point x="489" y="-6" type="curve"/>
			<point x="489" y="19" type="line"/>
			<point x="439" y="36"/>
			<point x="440" y="36"/>
			<point x="440" y="107" type="curve" smooth="yes"/>
			<point x="440" y="303"/>
			<point x="434" y="606"/>
			<point x="457" y="696" type="curve"/>
			<point x="437" y="711" type="line"/>
			<point x="395" y="678"/>
			<point x="344" y="652"/>
			<point x="303" y="636" type="curve"/>
			<point x="304" y="617" type="line"/>
			<point x="327" y="603"/>
			<point x="351" y="586"/>
			<point x="351" y="542" type="curve" smooth="yes"/>
			<point x="352" y="421" type="line"/>
			<point x="322" y="402" type="line"/>
			<point x="323" y="391" type="line"/>
			<point x="334" y="385"/>
			<point x="345" y="377"/>
			<point x="353" y="365" type="curve"/>
			<point x="356" y="97" type="line" smooth="yes"/>
			<point x="357" y="35"/>
			<point x="360" y="35"/>
			<point x="315" y="19" type="curve"/>
		</contour>
	</outline>
</glyph>
<glyph name="g.ss01" format="2">
	<advance width="445"/>
	<anchor x="233" y="390" name="top"/>
	<anchor x="233" y="-200" name="bottom"/>
	<outline>
		<contour>
			<point x="292" y="-200" type="curve"/>
			<point x="341" y="-168"/>
			<point x="386" y="-134"/>
			<point x="430" y="-94" type="curve"/>
			<point x="445" y="-2"/>
			<point x="410" y="57"/>
			<point x="316" y="92" type="curve"/>
			<point x="336" y="114"/>
			<point x="346" y="137"/>
			<point x="353" y="157" type="curve"/>
			<point x="353" y="195"/>
			<point x="340" y="255"/>
			<point x="334" y="299" type="curve"/>
			<point x="356" y="300"/>
			<point x="383" y="300"/>
			<point x="402" y="296" type="curve"/>
			<point x="411" y="323"/>
			<point x="420" y="349"/>
			<point x="445" y="386" type="curve"/>
			<point x="427" y="394" type="line"/>
			<point x="387" y="369"/>
			<point x="378" y="369"/>
			<point x="308" y="384" type="curve"/>
			<point x="287" y="350" type="line"/>
			<point x="251" y="372"/>
			<point x="209" y="393"/>
			<point x="198" y="399" type="curve"/>
			<point x="164" y="376"/>
			<point x="122" y="337"/>
			<point x="63" y="311" type="curve"/>
			<point x="44" y="288"/>
			<point x="27" y="237"/>
			<point x="27" y="173" type="curve" smooth="yes"/>
			<point x="27" y="64"/>
			<point x="73" y="14"/>
			<point x="149" y="4" type="curve"/>
			<point x="173" y="12"/>
			<point x="248" y="45"/>
			<point x="272" y="45" type="curve"/>
			<point x="328" y="26"/>
			<point x="361" y="-26"/>
			<point x="361" y="-69" type="curve" smooth="yes"/>
			<point x="361" y="-82"/>
			<point x="351" y="-108"/>
			<point x="331" y="-123" type="curve"/>
			<point x="233" y="-94"/>
			<point x="111" y="-83"/>
			<point x="63" y="-76" type="curve"/>
			<point x="49" y="-76"/>
			<point x="20" y="-91"/>
			<point x="10" y="-98" type="curve"/>
			<point x="45" y="-160" type="line"/>
			<point x="88" y="-146"/>
			<point x="166" y="-147"/>
		</contour>
		<contour>
			<point x="251" y="70" type="curve"/>
			<point x="152" y="43"/>
			<point x="102" y="94"/>
			<point x="102" y="200" type="curve" smooth="yes"/>
			<point x="102" y="264"/>
			<point x="120" y="297"/>
			<point x="142" y="313" type="curve"/>
			<point x="179" y="318"/>
			<point x="216" y="309"/>
			<point x="244" y="291" type="curve"/>
			<point x="265" y="267"/>
			<point x="284" y="158"/>
		</contour>
	</outline>
</glyph>
<glyph name="h.ss01" format="2">
	<advance width="433"/>
	<anchor x="216" y="350" name="center"/>
	<anchor x="216" y="0" name="bottom"/>
	<anchor x="216" y="700" name="top"/>
	<outline>
		<contour>
			<point x="199" y="-133" type="curve"/>
			<point x="199" y="-201" type="line"/>
			<point x="221" y="-200" type="line"/>
			<point x="246" y="-107"/>
			<point x="410" y="85"/>
			<point x="413" y="207" type="curve"/>
			<point x="416" y="321"/>
			<point x="368" y="375"/>
			<point x="293" y="419" type="curve"/>
			<point x="264" y="406"/>
			<point x="195" y="367"/>
			<point x="151" y="345" type="curve"/>
			<point x="149" y="452"/>
			<point x="149" y="561"/>
			<point x="153" y="629" type="curve"/>
			<point x="155" y="662"/>
			<point x="155" y="672"/>
			<point x="175" y="695" type="curve"/>
			<point x="160" y="714" type="line"/>
			<point x="118" y="689"/>
			<point x="61" y="660"/>
			<point x="20" y="636" type="curve"/>
			<point x="29" y="613" type="line"/>
			<point x="63" y="626"/>
			<point x="63" y="626"/>
			<point x="64" y="588" type="curve"/>
			<point x="66" y="521"/>
			<point x="67" y="444"/>
			<point x="68" y="366" type="curve"/>
			<point x="40" y="349" type="line"/>
			<point x="41" y="338" type="line"/>
			<point x="50" y="333"/>
			<point x="61" y="325"/>
			<point x="68" y="315" type="curve"/>
			<point x="69" y="239"/>
			<point x="70" y="163"/>
			<point x="70" y="97" type="curve"/>
			<point x="70" y="35"/>
			<point x="74" y="35"/>
			<point x="29" y="19" type="curve"/>
			<point x="29" y="-6" type="line"/>
			<point x="70" y="1"/>
			<point x="146" y="0"/>
			<point x="203" y="-6" type="curve"/>
			<point x="203" y="19" type="line"/>
			<point x="153" y="36"/>
			<point x="154" y="36"/>
			<point x="154" y="107" type="curve"/>
			<point x="154" y="155"/>
			<point x="153" y="220"/>
			<point x="152" y="290" type="curve"/>
			<point x="170" y="317"/>
			<point x="196" y="341"/>
			<point x="233" y="341" type="curve"/>
			<point x="287" y="341"/>
			<point x="336" y="274"/>
			<point x="336" y="174" type="curve"/>
			<point x="336" y="42"/>
			<point x="265" y="-40"/>
		</contour>
	</outline>
</glyph>
<glyph name="longs_i" format="2">
	<advance width="451"/>
	<anchor x="234" y="0" name="caret_1"/>
	<anchor x="122" y="0" name="bottom_1"/>
	<anchor x="122" y="390" name="top_1"/>
	<anchor x="347" y="390" name="top_2"/>
	<anchor x="347" y="0" name="bottom_2"/>
	<outline>
		<contour>
			<point x="34" y="-6" type="line"/>
			<point x="82" y="1"/>
			<point x="154" y="0"/>
			<point x="211" y="-6" type="curve"/>
			<point x="211" y="21" type="line"/>
			<point x="161" y="38"/>
			<point x="162" y="38"/>
			<point x="162" y="109" type="curve" smooth="yes"/>
			<point x="161" y="617" type="line"/>
			<point x="198" y="632"/>
			<point x="254" y="629"/>
			<point x="294" y="596" type="curve"/>
			<point x="304" y="598" type="line"/>
			<point x="326" y="677" type="line"/>
			<point x="301" y="700"/>
			<point x="247" y="711"/>
			<point x="199" y="711" type="curve"/>
			<point x="156" y="672"/>
			<point x="117" y="634"/>
			<point x="76" y="598" type="curve"/>
			<point x="76" y="388" type="line"/>
			<point x="25" y="369" type="line"/>
			<point x="25" y="347" type="line"/>
			<point x="77" y="347" type="line"/>
			<point x="77" y="108" type="line" smooth="yes"/>
			<point x="77" y="37"/>
			<point x="76" y="37"/>
			<point x="34" y="21" type="curve"/>
		</contour>
		<contour>
			<point x="275" y="-6" type="line"/>
			<point x="316" y="1"/>
			<point x="392" y="0"/>
			<point x="441" y="-6" type="curve"/>
			<point x="441" y="18" type="line"/>
			<point x="399" y="35"/>
			<point x="399" y="35"/>
			<point x="400" y="106" type="curve" smooth="yes"/>
			<point x="402" y="236"/>
			<point x="394" y="297"/>
			<point x="411" y="408" type="curve"/>
			<point x="391" y="419" type="line"/>
			<point x="349" y="386"/>
			<point x="309" y="376"/>
			<point x="268" y="368" type="curve"/>
			<point x="269" y="349" type="line"/>
			<point x="292" y="335"/>
			<point x="316" y="338"/>
			<point x="316" y="294" type="curve" smooth="yes"/>
			<point x="316" y="96" type="line" smooth="yes"/>
			<point x="316" y="34"/>
			<point x="320" y="34"/>
			<point x="275" y="18" type="curve"/>
		</contour>
	</outline>
</glyph>
<glyph name="longs_t" format="2">
	<advance width="455"/>
	<anchor x="264.5" y="0" name="caret_1"/>
	<anchor x="135" y="0" name="bottom"/>
	<anchor x="341" y="390" name="top"/>
	<anchor x="450" y="390" name="topright"/>
	<anchor x="341" y="195" name="center"/>
	<outline>
		<contour>
			<point x="25" y="21" type="curve"/>
			<point x="25" y="-6" type="line"/>
			<point x="73" y="1"/>
			<point x="145" y="0"/>
			<point x="202" y="-6" type="curve"/>
			<point x="202" y="21" type="line"/>
			<point x="152" y="38"/>
			<point x="153" y="38"/>
			<point x="153" y="109" type="curve"/>
			<point x="152" y="627" type="line"/>
			<point x="175" y="627"/>
			<point x="207" y="619"/>
			<point x="247" y="598" type="curve"/>
			<point x="307" y="660" type="line"/>
			<point x="307" y="670" type="line"/>
			<point x="282" y="683"/>
			<point x="228" y="695"/>
			<point x="190" y="711" type="curve"/>
			<point x="147" y="672"/>
			<point x="108" y="634"/>
			<point x="67" y="598" type="curve"/>
			<point x="67" y="407" type="line"/>
			<point x="36" y="384" type="line"/>
			<point x="36" y="371" type="line"/>
			<point x="68" y="351" type="line"/>
			<point x="68" y="108" type="line" smooth="yes"/>
			<point x="68" y="37"/>
			<point x="67" y="37"/>
		</contour>
		<contour>
			<point x="363" y="-9" type="curve"/>
			<point x="363" y="-9" type="line"/>
			<point x="389" y="-1"/>
			<point x="426" y="20"/>
			<point x="446" y="32" type="curve"/>
			<point x="442" y="56" type="line"/>
			<point x="360" y="56"/>
			<point x="359" y="97"/>
			<point x="358" y="225" type="curve"/>
			<point x="358" y="265"/>
			<point x="358" y="302"/>
			<point x="359" y="336" type="curve"/>
			<point x="449" y="336" type="line"/>
			<point x="450" y="390" type="line"/>
			<point x="361" y="390" type="line"/>
			<point x="364" y="442"/>
			<point x="370" y="488"/>
			<point x="379" y="535" type="curve"/>
			<point x="350" y="540" type="line"/>
			<point x="335" y="481"/>
			<point x="303" y="467"/>
			<point x="267" y="465" type="curve"/>
			<point x="264" y="444" type="line"/>
			<point x="273" y="437"/>
			<point x="278" y="415"/>
			<point x="279" y="390" type="curve"/>
			<point x="234" y="390" type="line"/>
			<point x="235" y="370" type="line"/>
			<point x="257" y="359"/>
			<point x="271" y="347"/>
			<point x="277" y="336" type="curve"/>
			<point x="278" y="336" type="line"/>
			<point x="273" y="59" type="line"/>
			<point x="284" y="27"/>
			<point x="313" y="1"/>
		</contour>
	</outline>
</glyph>
<glyph name="macr" format="2">
	<advance width="313"/>
	<anchor x="148" y="690" name="top"/>
	<anchor x="147" y="390" name="_top"/>
	<outline>
		<contour>
			<point x="48" y="485" type="line"/>
			<point x="64" y="508"/>
			<point x="194" y="497"/>
			<point x="241" y="497" type="curve"/>
			<point x="293" y="594" type="line"/>
			<point x="268" y="599" type="line"/>
			<point x="230" y="569"/>
			<point x="119" y="572"/>
			<point x="65" y="572" type="curve"/>
			<point x="20" y="491" type="line"/>
		</contour>
	</outline>
</glyph>
<glyph name="o_macr" format="2">
	<advance width="435"/>
	<anchor x="216" y="0" name="bottom"/>
	<anchor x="389" y="10" name="ogonek"/>
	<anchor x="228" y="690" name="top"/>
	<anchor x="412" y="390" name="topright"/>
	<anchor x="227" y="390" name="_top"/>
	<anchor x="216" y="195" name="center"/>
	<outline>
		<contour>
			<point x="227" y="-10" type="curve" smooth="yes"/>
			<point x="324" y="-10"/>
			<point x="415" y="88"/>
			<point x="415" y="198" type="curve" smooth="yes"/>
			<point x="415" y="333"/>
			<point x="318" y="400"/>
			<point x="218" y="400" type="curve" smooth="yes"/>
			<point x="111" y="400"/>
			<point x="20" y="311"/>
			<point x="20" y="192" type="curve" smooth="yes"/>
			<point x="20" y="57"/>
			<point x="129" y="-10"/>
		</contour>
		<contour>
			<point x="225" y="26" type="curve" smooth="yes"/>
			<point x="148" y="26"/>
			<point x="109" y="115"/>
			<point x="109" y="208" type="curve" smooth="yes"/>
			<point x="109" y="293"/>
			<point x="141" y="364"/>
			<point x="210" y="364" type="curve" smooth="yes"/>
			<point x="287" y="364"/>
			<point x="326" y="295"/>
			<point x="326" y="182" type="curve" smooth="yes"/>
			<point x="326" y="97"/>
			<point x="304" y="26"/>
		</contour>
		<contour>
			<point x="128" y="489" type="line"/>
			<point x="144" y="512"/>
			<point x="302" y="497"/>
			<point x="349" y="497" type="curve"/>
			<point x="358" y="526"/>
			<point x="375" y="555"/>
			<point x="402" y="584" type="curve"/>
			<point x="377" y="589" type="line"/>
			<point x="339" y="559"/>
			<point x="200" y="566"/>
			<point x="146" y="566" type="curve"/>
			<point x="100" y="495" type="line"/>
		</contour>
	</outline>
</glyph>
<glyph name="q_etfin" format="2">
	<advance width="593"/>
	<anchor x="214" y="0" name="bottom"/>
	<anchor x="100" y="0" name="bottom_1"/>
	<anchor x="100" y="390" name="top_1"/>
	<anchor x="300" y="390" name="top_2"/>
	<anchor x="400" y="0" name="caret_2"/>
	<anchor x="200" y="0" name="caret_1"/>
	<anchor x="500" y="0" name="bottom_3"/>
	<anchor x="214" y="390" name="top"/>
	<anchor x="500" y="390" name="top_3"/>
	<anchor x="300" y="0" name="bottom_2"/>
	<outline>
		<contour>
			<point x="226" y="-180" type="curve"/>
			<point x="226" y="-205" type="line"/>
			<point x="293" y="-199"/>
			<point x="369" y="-191"/>
			<point x="420" y="-187" type="curve"/>
			<point x="420" y="-162" type="line"/>
			<point x="372" y="-156"/>
			<point x="370" y="-155"/>
			<point x="369" y="-114" type="curve"/>
			<point x="481" y="-45"/>
			<point x="563" y="6"/>
			<point x="563" y="92" type="curve"/>
			<point x="563" y="120"/>
			<point x="543" y="173"/>
			<point x="484" y="190" type="curve"/>
			<point x="525" y="232"/>
			<point x="550" y="261"/>
			<point x="550" y="281" type="curve"/>
			<point x="550" y="307"/>
			<point x="520" y="380"/>
			<point x="455" y="406" type="curve"/>
			<point x="365" y="325" type="line"/>
			<point x="365" y="349"/>
			<point x="366" y="371"/>
			<point x="371" y="399" type="curve"/>
			<point x="355" y="406" type="line"/>
			<point x="347" y="397"/>
			<point x="338" y="387"/>
			<point x="329" y="378" type="curve"/>
			<point x="291" y="393"/>
			<point x="255" y="399"/>
			<point x="222" y="399" type="curve"/>
			<point x="98" y="399"/>
			<point x="21" y="291"/>
			<point x="20" y="173" type="curve"/>
			<point x="19" y="52"/>
			<point x="93" y="-10"/>
			<point x="179" y="-10" type="curve"/>
			<point x="212" y="6"/>
			<point x="251" y="35"/>
			<point x="289" y="65" type="curve"/>
			<point x="287" y="4"/>
			<point x="285" y="-52"/>
			<point x="285" y="-92" type="curve"/>
			<point x="286" y="-163"/>
			<point x="286" y="-163"/>
		</contour>
		<contour>
			<point x="209" y="67" type="curve"/>
			<point x="209" y="67" type="line"/>
			<point x="145" y="67"/>
			<point x="74" y="111"/>
			<point x="72" y="202" type="curve"/>
			<point x="70" y="289"/>
			<point x="127" y="330"/>
			<point x="190" y="330" type="curve"/>
			<point x="233" y="330"/>
			<point x="270" y="318"/>
			<point x="295" y="294" type="curve"/>
			<point x="296" y="235"/>
			<point x="294" y="165"/>
			<point x="291" y="99" type="curve"/>
			<point x="264" y="77"/>
			<point x="246" y="67"/>
		</contour>
		<contour>
			<point x="369" y="-76" type="curve"/>
			<point x="369" y="-76" type="line"/>
			<point x="367" y="106" type="line"/>
			<point x="459" y="153"/>
			<point x="483" y="96"/>
			<point x="483" y="61" type="curve"/>
			<point x="483" y="15"/>
			<point x="445" y="-25"/>
		</contour>
		<contour>
			<point x="367" y="135" type="curve"/>
			<point x="367" y="135" type="line"/>
			<point x="365" y="280" type="line"/>
			<point x="386" y="300"/>
			<point x="403" y="306"/>
			<point x="427" y="306" type="curve"/>
			<point x="452" y="306"/>
			<point x="480" y="291"/>
			<point x="480" y="253" type="curve"/>
			<point x="480" y="207"/>
			<point x="429" y="173"/>
		</contour>
	</outline>
</glyph>
<glyph name="q_strok_ra" format="2">
	<advance width="590"/>
	<anchor x="214" y="0" name="bottom"/>
	<anchor x="100" y="0" name="bottom_1"/>
	<anchor x="500" y="390" name="top_3"/>
	<anchor x="300" y="390" name="top_2"/>
	<anchor x="400" y="0" name="caret_2"/>
	<anchor x="200" y="0" name="caret_1"/>
	<anchor x="500" y="0" name="bottom_3"/>
	<anchor x="214" y="390" name="top"/>
	<anchor x="300" y="0" name="bottom_2"/>
	<anchor x="100" y="390" name="top_1"/>
	<outline>
		<contour>
			<point x="226" y="-205" type="line"/>
			<point x="293" y="-199"/>
			<point x="369" y="-191"/>
			<point x="420" y="-187" type="curve"/>
			<point x="420" y="-162" type="line"/>
			<point x="365" y="-155"/>
			<point x="370" y="-155"/>
			<point x="369" y="-93" type="curve" smooth="yes"/>
			<point x="368" y="-27" type="line"/>
			<point x="490" y="58"/>
			<point x="570" y="134"/>
			<point x="570" y="252" type="curve" smooth="yes"/>
			<point x="570" y="335"/>
			<point x="533" y="375"/>
			<point x="454" y="400" type="curve"/>
			<point x="365" y="324" type="line"/>
			<point x="365" y="349"/>
			<point x="366" y="371"/>
			<point x="371" y="399" type="curve"/>
			<point x="355" y="406" type="line"/>
			<point x="347" y="397"/>
			<point x="338" y="387"/>
			<point x="329" y="378" type="curve"/>
			<point x="291" y="393"/>
			<point x="255" y="399"/>
			<point x="222" y="399" type="curve" smooth="yes"/>
			<point x="98" y="399"/>
			<point x="21" y="291"/>
			<point x="20" y="173" type="curve" smooth="yes"/>
			<point x="19" y="52"/>
			<point x="93" y="-10"/>
			<point x="179" y="-10" type="curve"/>
			<point x="212" y="6"/>
			<point x="251" y="35"/>
			<point x="289" y="65" type="curve"/>
			<point x="288" y="27"/>
			<point x="286" y="-9"/>
			<point x="286" y="-40" type="curve"/>
			<point x="247" y="-65"/>
			<point x="203" y="-93"/>
			<point x="153" y="-123" type="curve"/>
			<point x="153" y="-170" type="line"/>
			<point x="199" y="-138"/>
			<point x="244" y="-109"/>
			<point x="285" y="-82" type="curve"/>
			<point x="285" y="-92" type="line" smooth="yes"/>
			<point x="286" y="-163"/>
			<point x="286" y="-163"/>
			<point x="226" y="-180" type="curve"/>
		</contour>
		<contour>
			<point x="209" y="67" type="curve" smooth="yes"/>
			<point x="145" y="67"/>
			<point x="74" y="111"/>
			<point x="72" y="202" type="curve" smooth="yes"/>
			<point x="70" y="289"/>
			<point x="127" y="330"/>
			<point x="190" y="330" type="curve" smooth="yes"/>
			<point x="233" y="330"/>
			<point x="270" y="318"/>
			<point x="295" y="294" type="curve"/>
			<point x="296" y="235"/>
			<point x="294" y="165"/>
			<point x="291" y="99" type="curve"/>
			<point x="264" y="77"/>
			<point x="246" y="67"/>
		</contour>
		<contour>
			<point x="368" y="19" type="curve"/>
			<point x="365" y="285" type="line"/>
			<point x="436" y="342"/>
			<point x="493" y="290"/>
			<point x="493" y="225" type="curve" smooth="yes"/>
			<point x="493" y="146"/>
			<point x="455" y="87"/>
		</contour>
		<contour>
			<point x="420" y="452" type="curve"/>
			<point x="511" y="557" type="line"/>
			<point x="494" y="572" type="line"/>
			<point x="437" y="521"/>
			<point x="422" y="537"/>
			<point x="363" y="590" type="curve"/>
			<point x="290" y="523" type="line"/>
			<point x="254" y="543"/>
			<point x="239" y="559"/>
			<point x="200" y="592" type="curve"/>
			<point x="120" y="516" type="line"/>
			<point x="139" y="498" type="line"/>
			<point x="178" y="533"/>
			<point x="224" y="495"/>
			<point x="260" y="460" type="curve"/>
			<point x="311" y="513" type="line" smooth="yes"/>
			<point x="345" y="548"/>
			<point x="381" y="490"/>
		</contour>
	</outline>
</glyph>
<glyph name="q_tilde" format="2">
	<advance width="434"/>
	<anchor x="214" y="390" name="top"/>
	<anchor x="214" y="0" name="bottom"/>
	<outline>
		<contour>
			<point x="226" y="-180" type="curve"/>
			<point x="226" y="-205" type="line"/>
			<point x="293" y="-199"/>
			<point x="369" y="-191"/>
			<point x="420" y="-187" type="curve"/>
			<point x="420" y="-162" type="line"/>
			<point x="365" y="-155"/>
			<point x="370" y="-155"/>
			<point x="369" y="-93" type="curve"/>
			<point x="365" y="286" type="line" smooth="yes"/>
			<point x="365" y="330"/>
			<point x="364" y="358"/>
			<point x="371" y="399" type="curve"/>
			<point x="355" y="406" type="line"/>
			<point x="347" y="397"/>
			<point x="338" y="387"/>
			<point x="329" y="378" type="curve"/>
			<point x="291" y="393"/>
			<point x="255" y="399"/>
			<point x="222" y="399" type="curve"/>
			<point x="98" y="399"/>
			<point x="21" y="291"/>
			<point x="20" y="173" type="curve"/>
			<point x="19" y="52"/>
			<point x="93" y="-10"/>
			<point x="179" y="-10" type="curve"/>
			<point x="212" y="6"/>
			<point x="251" y="35"/>
			<point x="289" y="65" type="curve"/>
			<point x="287" y="4"/>
			<point x="285" y="-52"/>
			<point x="285" y="-92" type="curve"/>
			<point x="286" y="-163"/>
			<point x="286" y="-163"/>
		</contour>
		<contour>
			<point x="209" y="67" type="curve"/>
			<point x="209" y="67" type="line"/>
			<point x="145" y="67"/>
			<point x="74" y="111"/>
			<point x="72" y="202" type="curve"/>
			<point x="70" y="289"/>
			<point x="127" y="330"/>
			<point x="190" y="330" type="curve"/>
			<point x="233" y="330"/>
			<point x="270" y="318"/>
			<point x="295" y="294" type="curve"/>
			<point x="296" y="235"/>
			<point x="294" y="165"/>
			<point x="291" y="99" type="curve"/>
			<point x="264" y="77"/>
			<point x="246" y="67"/>
		</contour>
		<contour>
			<point x="225" y="473" type="line"/>
			<point x="245" y="461" type="line"/>
			<point x="306" y="525" type="line"/>
			<point x="326" y="509"/>
			<point x="348" y="498"/>
			<point x="387" y="465" type="curve"/>
			<point x="454" y="573" type="line"/>
			<point x="433" y="585" type="line"/>
			<point x="375" y="509"/>
			<point x="361" y="567"/>
			<point x="325" y="602" type="curve"/>
		</contour>
	</outline>
</glyph>
<glyph name="r_rot" format="2">
	<advance width="320"/>
	<outline>
		<contour>
			<point x="175" y="-10" type="curve"/>
			<point x="175" y="-10" type="line"/>
			<point x="288" y="65" type="line"/>
			<point x="277" y="81" type="line"/>
			<point x="232" y="83"/>
			<point x="221" y="85"/>
			<point x="198" y="96" type="curve"/>
			<point x="118" y="134" type="line"/>
			<point x="310" y="299" type="line"/>
			<point x="308" y="315" type="line"/>
			<point x="246" y="338"/>
			<point x="189" y="367"/>
			<point x="137" y="402" type="curve"/>
			<point x="10" y="318" type="line"/>
			<point x="24" y="302" type="line"/>
			<point x="43" y="313"/>
			<point x="65" y="318"/>
			<point x="84" y="318" type="curve"/>
			<point x="122" y="310"/>
			<point x="157" y="284"/>
			<point x="194" y="253" type="curve"/>
			<point x="20" y="86" type="line"/>
			<point x="20" y="76" type="line"/>
			<point x="69" y="56"/>
			<point x="126" y="28"/>
		</contour>
	</outline>
</glyph>
<glyph name="r_rot_c_ra" format="2">
	<advance width="591"/>
	<outline>
		<contour>
			<point x="290" y="-14" type="curve"/>
			<point x="363" y="58" type="line"/>
			<point x="387" y="17"/>
			<point x="425" y="-8"/>
			<point x="473" y="-8" type="curve" smooth="yes"/>
			<point x="520" y="-8"/>
			<point x="557" y="25"/>
			<point x="591" y="42" type="curve"/>
			<point x="586" y="65" type="line"/>
			<point x="484" y="36"/>
			<point x="411" y="83"/>
			<point x="411" y="205" type="curve" smooth="yes"/>
			<point x="411" y="242"/>
			<point x="415" y="280"/>
			<point x="430" y="323" type="curve"/>
			<point x="475" y="325"/>
			<point x="522" y="317"/>
			<point x="557" y="299" type="curve"/>
			<point x="563" y="302" type="line"/>
			<point x="574" y="390" type="line"/>
			<point x="549" y="397"/>
			<point x="503" y="403"/>
			<point x="430" y="393" type="curve"/>
			<point x="368" y="340" type="line"/>
			<point x="348" y="311"/>
			<point x="332" y="266"/>
			<point x="332" y="191" type="curve" smooth="yes"/>
			<point x="332" y="151"/>
			<point x="338" y="114"/>
			<point x="351" y="83" type="curve"/>
			<point x="307" y="44" type="line"/>
			<point x="150" y="91" type="line"/>
			<point x="194" y="156"/>
			<point x="251" y="194"/>
			<point x="251" y="285" type="curve" smooth="yes"/>
			<point x="251" y="351"/>
			<point x="204" y="402"/>
			<point x="138" y="402" type="curve" smooth="yes"/>
			<point x="108" y="402"/>
			<point x="79" y="393"/>
			<point x="57" y="386" type="curve"/>
			<point x="10" y="297" type="line"/>
			<point x="27" y="285" type="line"/>
			<point x="52" y="303"/>
			<point x="79" y="328"/>
			<point x="118" y="328" type="curve" smooth="yes"/>
			<point x="153" y="328"/>
			<point x="195" y="304"/>
			<point x="195" y="248" type="curve" smooth="yes"/>
			<point x="195" y="174"/>
			<point x="105" y="88"/>
			<point x="38" y="18" type="curve"/>
			<point x="63" y="0" type="line"/>
			<point x="75" y="8"/>
			<point x="103" y="25"/>
			<point x="115" y="25" type="curve" smooth="yes"/>
			<point x="173" y="25"/>
			<point x="213" y="-3"/>
		</contour>
		<contour>
			<point x="420" y="462" type="curve"/>
			<point x="450" y="503"/>
			<point x="486" y="533"/>
			<point x="536" y="584" type="curve"/>
			<point x="518" y="642" type="line"/>
			<point x="512" y="642" type="line"/>
			<point x="494" y="601"/>
			<point x="457" y="538"/>
			<point x="449" y="537" type="curve"/>
			<point x="413" y="545"/>
			<point x="382" y="581"/>
			<point x="350" y="600" type="curve"/>
			<point x="284" y="541" type="line"/>
			<point x="247" y="550"/>
			<point x="230" y="578"/>
			<point x="190" y="601" type="curve"/>
			<point x="100" y="507" type="line"/>
			<point x="111" y="469" type="line"/>
			<point x="119" y="471" type="line"/>
			<point x="137" y="502"/>
			<point x="156" y="530"/>
			<point x="167" y="529" type="curve" smooth="yes"/>
			<point x="193" y="526"/>
			<point x="225" y="494"/>
			<point x="250" y="470" type="curve"/>
			<point x="306" y="523" type="line"/>
			<point x="327" y="534"/>
			<point x="381" y="500"/>
		</contour>
	</outline>
</glyph>
<glyph name="ra" format="2">
	<advance width="411"/>
	<outline>
		<contour>
			<point x="310" y="452" type="curve"/>
			<point x="310" y="452" type="line"/>
			<point x="391" y="528" type="line"/>
			<point x="374" y="543" type="line"/>
			<point x="327" y="522"/>
			<point x="289" y="560"/>
			<point x="250" y="583" type="curve"/>
			<point x="204" y="541" type="line"/>
			<point x="167" y="530"/>
			<point x="130" y="568"/>
			<point x="90" y="591" type="curve"/>
			<point x="20" y="517" type="line"/>
			<point x="39" y="499" type="line"/>
			<point x="68" y="533"/>
			<point x="114" y="495"/>
			<point x="150" y="460" type="curve"/>
			<point x="206" y="513" type="line"/>
			<point x="227" y="524"/>
			<point x="271" y="490"/>
		</contour>
	</outline>
</glyph>
